<svg version="1.2" baseProfile="tiny-ps" xmlns="http://www.w3.org/2000/svg" viewBox="0 0 969 1946" width="969" height="1946">
	<title>-e- export</title>
	<style>
		tspan { white-space:pre }
		.shp0 { fill: #323336 } 
	</style>
	<path id="-e- export" fill-rule="evenodd" class="shp0" d="M401.25 0.09C713.03 0.01 747.66 0.16 753.75 1.58C757.46 2.45 762.75 4.1 765.5 5.25C768.25 6.4 773.2 9.23 776.5 11.54C779.8 13.85 784.41 17.82 786.75 20.37C789.09 22.92 792.55 27.36 794.45 30.25C796.34 33.14 799.15 39.1 803.5 51.5L803.5 159C803.5 258.33 803.37 266.97 801.75 272.75C800.79 276.19 798.92 281.14 797.61 283.75C796.29 286.36 793.14 291.31 790.61 294.75C788.07 298.19 783.41 303.02 780.25 305.5C777.09 307.97 772.02 311.31 769 312.91C765.97 314.52 760.8 316.54 757.5 317.4C752.11 318.8 716 318.96 402 318.96C86.46 318.96 51.92 318.81 46.5 317.38C43.2 316.51 38.47 314.77 36 313.51C33.52 312.25 28.69 309.14 25.25 306.61C21.81 304.07 16.95 299.41 14.44 296.25C11.93 293.09 8.55 287.91 6.94 284.75C5.32 281.59 3.21 276.19 2.25 272.75C0.63 266.97 0.5 258.33 0.5 51.5L3.3 43.5C4.85 39.1 7.66 33.14 9.55 30.25C11.45 27.36 14.91 22.92 17.25 20.37C19.59 17.82 24.2 13.86 27.5 11.56C30.8 9.26 35.52 6.5 37.99 5.44C40.46 4.37 45.41 2.75 48.99 1.84C54.99 0.31 82.39 0.17 401.25 0.09ZM44.5 30.74C42.3 31.85 38.5 34.96 36.05 37.63C33.6 40.31 30.45 44.97 29.05 48L26.5 53.5L26.5 266.5C30.55 275.02 33.7 279.68 36.11 282.35C38.83 285.37 42.96 288.4 46.98 290.35L53.46 293.5L750.54 293.5C761.04 288.4 765.17 285.37 767.89 282.35C770.3 279.68 773.45 275.02 774.89 272L777.5 266.5L777.5 53.5C773.24 44.59 770.04 39.86 767.63 37.25C764.94 34.32 760.83 31.35 756.88 29.5L750.5 26.5C121.57 26.17 54.83 26.38 52 27.43C50.07 28.13 46.7 29.63 44.5 30.74ZM117.63 50.99C118.11 50.98 120.38 52.67 122.68 54.74C124.98 56.81 130.52 62.1 134.98 66.5C139.44 70.9 143.07 74.84 143.04 75.25C143.02 75.66 139.51 76.11 127.5 76.5L128.14 112.5L125.32 115.36C122.82 117.89 121.92 118.17 117.42 117.86C114.62 117.66 111.56 116.82 110.62 116C109.28 114.83 108.92 112.86 108.95 107C108.97 102.87 108.66 94.43 107.5 76.99L100.75 76.99C97.04 77 93.77 76.55 93.5 76C93.22 75.45 93.29 74.44 93.64 73.75C94 73.06 99.34 67.66 105.52 61.75C111.7 55.84 117.15 50.99 117.63 50.99ZM901.07 53L917 53L916.98 70.5L927.24 71.75C932.88 72.44 942 74.16 947.5 75.58C953 76.99 959.37 78.99 961.65 80.02C963.93 81.05 965.84 82.14 965.9 82.44C965.95 82.75 963.71 88.74 960.91 95.75C958.1 102.76 955.63 108.84 955.41 109.25C955.18 109.66 951.06 108.69 946.25 107.09C941.44 105.48 934.01 103.46 929.75 102.59C925.49 101.71 920.88 101 917 101L917.5 135.34L930.5 140.95C937.65 144.03 946.2 148.38 949.5 150.63C952.8 152.87 957.67 157.13 960.31 160.1C962.96 163.07 966 167.86 967.06 170.75C968.36 174.26 969 178.56 969 183.75C969 188.7 968.35 193.31 967.21 196.5C966.22 199.25 964.3 203.27 962.95 205.43C961.6 207.59 958.66 210.97 956.41 212.93C954.17 214.89 949.67 217.93 946.41 219.68C943.16 221.42 936.9 223.75 932.5 224.85C928.1 225.94 922.81 227.1 917 228L917 252L901 252L900.5 228.5L897 228.26C895.07 228.13 889.45 227.54 884.5 226.94C879.55 226.35 871.45 224.8 866.5 223.5C861.55 222.21 855.81 220.44 850 218L850 202.5C850 193.97 850.34 186.99 850.75 186.97C851.16 186.96 853.97 188.02 857 189.34C860.02 190.65 866.55 192.9 871.5 194.32C876.45 195.75 884.55 197.61 889.5 198.46C894.45 199.3 899.06 199.99 899.75 200C900.71 200 900.94 195.84 900.5 163.69L891 159.59C885.77 157.33 878.59 153.92 875.04 151.99C871.48 150.07 865.93 146.02 862.69 143C858.78 139.34 855.76 135.33 853.68 131C851.11 125.67 850.47 122.97 850.14 116C849.87 110.06 850.24 105.84 851.37 102C852.27 98.97 854.57 94.36 856.5 91.75C858.42 89.14 862.59 85.27 865.75 83.15C868.91 81.04 874.42 78.13 878 76.7C881.57 75.27 888.1 73.48 900.5 71.37L900.79 62.18L901.07 53ZM888.75 106.22C886.62 108.37 886 109.96 885.99 113.25C885.99 115.72 886.72 118.53 887.74 119.96C888.71 121.31 891.52 123.68 894 125.22C896.47 126.77 899.06 128.02 899.75 128.01C900.69 128 901 124.63 901 114.5C901 107.07 900.66 101.05 900.25 101.1C899.84 101.16 897.7 101.71 895.5 102.32C893.3 102.94 890.26 104.69 888.75 106.22ZM917.03 184.48C917.01 195.45 917.31 199 918.25 198.99C918.94 198.98 921.86 197.86 924.75 196.49C928.18 194.86 930.52 192.96 931.5 191C932.32 189.35 932.98 186.76 932.96 185.25C932.95 183.74 932.38 181.53 931.71 180.33C931.05 179.14 929.38 177.29 928 176.22C926.63 175.15 923.6 173.3 921.28 172.12L917.07 169.96L917.03 184.48ZM221 113L293 113L293 128L267 128L267 192L247 192L247 128L221 128L221 113ZM479.14 112.86L501.82 113.18C523.7 113.49 524.69 113.59 530 116.05C533.05 117.47 536.7 120.14 538.18 122.05C539.65 123.95 541.38 126.85 542.01 128.5C542.65 130.15 543.2 134.42 543.23 138C543.27 142.41 542.66 145.95 541.32 149C540.23 151.47 537.91 154.96 536.17 156.75C534.01 158.96 530.85 160.64 526.25 162.02C521.35 163.49 516.69 164.04 499 164L499 192L479 192L479.14 112.86ZM499 149C515.79 149 516.28 148.87 519.08 146C521.43 143.58 522 142.12 522 138.5C522 135.26 521.37 133.29 519.75 131.45C518.51 130.04 515.7 128.48 513.5 127.97C511.3 127.46 507.14 127.04 504.25 127.02L499 127L499 149ZM697 115L716 115L716 132L736 132L736 146L716 146L716.25 160.45C716.43 170.7 716.88 175.28 717.8 176.2C718.58 176.98 722.09 177.6 734 178L734.01 192.5L722.25 191.86C715.55 191.5 709 190.59 707 189.74C705.07 188.92 702.51 187.19 701.31 185.88C700.11 184.57 698.66 181.47 698.09 179C697.52 176.52 697.04 168.09 697 146L688 146L688 132L697 132L697 115ZM316 131.03C320.13 131 325.75 131.63 328.5 132.42C331.25 133.21 335.52 135.36 338 137.21C340.62 139.17 343.75 142.85 345.5 146.04C348.3 151.13 348.5 152.21 348.5 162C348.5 171.8 348.3 172.86 345.5 177.88C343.85 180.84 340.7 184.65 338.5 186.36C336.3 188.07 332.7 190.1 330.5 190.87C328.3 191.64 323.13 192.49 319 192.76C313.81 193.1 309.8 192.77 306 191.67C302.97 190.79 298.7 188.89 296.5 187.43C294.3 185.97 291.38 183.37 290.01 181.64C288.65 179.91 286.92 176.7 286.17 174.5C285.43 172.3 284.57 168.25 284.26 165.5C283.95 162.73 284.31 157.6 285.08 154C285.83 150.42 287.67 145.7 289.15 143.5C290.64 141.3 293.35 138.4 295.17 137.07C297 135.73 300.75 133.83 303.5 132.85C306.53 131.77 311.46 131.05 316 131.03ZM305.27 153.61C304.59 155.75 304.03 159.52 304.03 162C304.03 164.47 304.59 168.25 305.27 170.39C305.94 172.54 307.74 175.35 309.25 176.64C311.15 178.27 313.24 179 316 179C318.2 179 321.15 178.44 322.56 177.75C323.97 177.06 325.99 174.7 327.05 172.5C328.31 169.88 328.98 166.34 328.99 162.25C328.99 158.81 328.35 154.31 327.55 152.25C326.75 150.19 324.95 147.71 323.55 146.75C322.07 145.73 319.15 145 316.58 145C313.41 145 311.37 145.66 309.33 147.36C307.78 148.65 305.94 151.46 305.27 153.61ZM401 131.06C404.2 131.05 408.17 131.8 410.5 132.85C412.7 133.85 416.3 136.68 418.5 139.16C420.78 141.73 423.26 145.98 424.27 149.08C425.33 152.31 426.04 157.53 426.04 162C426.04 166.47 425.33 171.69 424.27 174.92C423.3 177.9 420.9 182.18 418.93 184.42C416.97 186.66 413.37 189.51 410.93 190.74C408.3 192.06 404.67 192.97 402 192.97C399.52 192.97 395.75 192.41 393.61 191.73C391.46 191.05 387.98 189.04 382 184L382 214L363 214L363 132L382 132L382 140L385.75 136.83C387.81 135.09 390.85 133.08 392.5 132.37C394.15 131.66 397.97 131.07 401 131.06ZM383.01 153.75C382.46 155.81 382.01 159.52 382.01 162C382.01 164.47 382.44 168.07 382.96 170C383.49 171.92 384.95 174.52 386.21 175.77C387.47 177.02 390.3 178.31 392.5 178.64C395.23 179.05 397.53 178.73 399.75 177.62C401.54 176.73 403.45 175.1 404 174C404.55 172.9 405.46 169.64 406.02 166.75C406.71 163.18 406.71 159.82 406.02 156.25C405.46 153.36 403.99 149.83 402.75 148.4C401.05 146.43 399.27 145.67 395.46 145.29C391.1 144.85 389.99 145.14 387.21 147.39C385.32 148.92 383.59 151.55 383.01 153.75ZM586.5 131.32C593.18 131.55 596.79 132.2 600.5 133.86C603.25 135.09 607 137.54 608.84 139.3C610.67 141.06 613.04 144.19 614.09 146.25C615.14 148.31 616.42 152.81 616.94 156.25C617.54 160.17 617.54 164.64 616.94 168.25C616.42 171.41 615.14 175.69 614.09 177.75C613.04 179.81 610.67 182.94 608.84 184.7C607 186.46 603.25 188.93 600.5 190.2C596.27 192.14 593.87 192.5 585 192.48C576.53 192.46 573.63 192.05 570 190.39C567.52 189.25 563.98 187.01 562.11 185.41C560.25 183.81 557.68 180.7 556.4 178.5C555.11 176.3 553.68 171.58 553.2 168C552.72 164.42 552.71 158.91 553.17 155.75C553.62 152.59 554.73 148.54 555.61 146.75C556.5 144.96 558.64 142 560.36 140.16C562.09 138.33 564.85 136.12 566.5 135.25C568.15 134.38 571.3 133.07 573.5 132.34C575.98 131.52 580.92 131.14 586.5 131.32ZM573.83 152.75C573.18 154.81 572.68 159.2 572.7 162.5C572.73 165.8 573.48 170.19 574.38 172.25C575.33 174.45 577.24 176.62 579 177.5C580.65 178.32 583.69 179 585.75 179.01C587.81 179.01 590.51 178.34 591.75 177.51C592.99 176.68 594.77 174.54 595.7 172.75C596.86 170.53 597.4 167.12 597.4 162C597.4 156.88 596.86 153.47 595.7 151.25C594.77 149.46 592.99 147.32 591.75 146.49C590.51 145.66 587.43 144.99 584.9 144.99C581.87 145 579.4 145.68 577.65 147C576.19 148.1 574.47 150.69 573.83 152.75ZM657 131.42C663.32 131.61 670.64 132.27 678 134L678 141C678 147.72 677.91 147.98 675.75 147.58C674.51 147.35 671.02 146.46 668 145.59C664.97 144.73 659.69 144.02 656.25 144.01C652.81 144.01 648.88 144.45 647.5 145C645.9 145.64 644.98 146.81 644.96 148.25C644.93 149.49 645.49 151.05 646.21 151.72C646.92 152.4 651.55 153.61 656.5 154.43C661.45 155.25 667.52 156.64 670 157.51C672.47 158.39 675.33 159.87 676.35 160.8C677.37 161.74 678.84 163.74 679.6 165.25C680.37 166.76 681 170.59 681 173.75C681.01 177.44 680.34 180.75 679.15 183C677.9 185.34 675.5 187.44 671.89 189.33C667.56 191.59 664.73 192.26 657.5 192.72C651.35 193.11 645.41 192.77 629 190L629 182.5C629 178.37 629.11 175 629.25 175C629.39 175 631.97 175.95 635 177.12C638.44 178.44 643.69 179.4 649 179.67C654.89 179.97 658.27 179.7 660 178.78C661.42 178.03 662.64 176.38 662.82 174.98C663 173.61 662.55 171.94 661.82 171.26C661.1 170.58 656.22 169.32 651 168.47C645.77 167.61 639.48 165.92 637 164.71C634.5 163.48 631.49 160.95 630.22 159C628.51 156.37 627.95 154.08 627.97 149.75C627.99 146.59 628.67 142.65 629.5 141C630.32 139.35 632.46 136.9 634.25 135.55C636.04 134.2 639.3 132.64 641.5 132.09C643.7 131.53 650.67 131.23 657 131.42ZM76 139.14C77.92 139.09 81.3 139.48 83.5 140C85.7 140.52 88.54 141.97 89.81 143.23C91.47 144.86 92.11 146.63 92.1 149.5C92.09 151.7 91.39 154.51 90.54 155.75C89.69 156.99 88.21 157.99 87.25 157.99C85.96 157.98 86.35 158.7 88.77 160.74C90.57 162.26 92.43 164.85 92.89 166.5C93.42 168.36 93.31 170.82 92.62 172.97C91.93 175.09 90.14 177.31 88 178.71C86.07 179.96 82.47 181.26 80 181.59C77.52 181.92 73.47 181.89 71 181.52C68.52 181.15 65.71 180.66 64.75 180.43C63.45 180.11 63 178.98 63 176C63 172.62 63.27 172.1 64.75 172.62C65.71 172.96 68.52 173.47 71 173.76C73.47 174.04 76.74 173.99 78.25 173.64C79.76 173.29 81.45 172.1 82 171C82.73 169.55 82.59 168.32 81.5 166.5C80.36 164.59 78.81 163.82 74.98 163.25C70.14 162.53 69.97 162.39 69.98 159.25C70 156.09 70.12 156 74.25 156.03C77.02 156.05 79.13 155.44 80.31 154.28C81.48 153.14 81.93 151.69 81.56 150.25C81.21 148.85 79.97 147.76 78.25 147.36C76.74 147.01 73.7 146.96 71.5 147.25C69.3 147.54 66.71 148.05 65.75 148.39C64.28 148.9 64 148.37 63.99 145.02C63.98 141.69 64.34 140.96 66.24 140.56C67.48 140.29 69.4 139.89 70.5 139.65C71.6 139.42 74.07 139.19 76 139.14ZM117.5 139.14C119.15 139.09 122.41 139.93 124.75 141.02C128.26 142.65 129.46 144 131.65 148.75C133.97 153.8 134.24 155.41 133.81 162C133.5 166.83 132.6 170.92 131.26 173.5C130.12 175.7 127.68 178.38 125.84 179.46C123.74 180.69 120.64 181.43 117.5 181.43C114.28 181.44 111.26 180.73 109 179.42C107.03 178.28 104.45 175.45 103.1 172.95C101.13 169.29 100.71 167.07 100.73 160.5C100.75 154.39 101.26 151.5 102.88 148.25C104.05 145.91 106.24 143.15 107.75 142.12C109.26 141.08 111.4 140.01 112.5 139.73C113.6 139.46 115.85 139.19 117.5 139.14ZM111.24 156.5C110.96 159.25 111.02 163.64 111.37 166.25C111.72 168.86 112.67 171.67 113.5 172.5C114.32 173.32 116.13 174 117.5 174C118.98 174 120.62 173.08 121.51 171.75C122.57 170.16 123.02 166.86 123.02 160.5C123.02 154.14 122.57 150.84 121.51 149.25C120.51 147.76 119 147 117.03 147C114.96 147 113.71 147.68 112.9 149.25C112.26 150.49 111.51 153.75 111.24 156.5ZM155.5 139.1C156.6 139.05 159.07 139.43 161 139.94C162.92 140.45 165.96 142.47 167.75 144.43C169.54 146.39 171.45 149.69 171.99 151.75C172.54 153.81 172.99 157.75 172.99 160.5C172.99 163.25 172.54 167.19 171.99 169.25C171.45 171.31 169.54 174.61 167.75 176.57C165.82 178.7 162.98 180.52 160.75 181.07C158.69 181.58 155.31 181.72 153.25 181.38C151.19 181.03 148.15 179.76 146.5 178.55C144.85 177.34 142.76 174.81 141.85 172.92C140.95 171.04 139.89 167.25 139.51 164.5C139.13 161.74 139.31 157.03 139.91 154C140.55 150.78 142.21 146.95 143.89 144.76C145.62 142.52 148.12 140.66 150.14 140.1C151.99 139.6 154.4 139.14 155.5 139.1ZM150.24 160.22C150.17 163.67 150.65 168.07 151.31 170C152.36 173.1 152.9 173.5 155.97 173.5C158.67 173.5 159.72 172.94 160.71 171C161.41 169.6 161.97 164.97 161.97 160.5C161.97 156.06 161.41 151.39 160.71 150C159.84 148.26 158.48 147.4 156.26 147.18C153.4 146.9 152.91 147.25 151.71 150.4C150.97 152.35 150.31 156.76 150.24 160.22ZM116.95 208C119.18 208 122.01 208.51 123.25 209.14C124.49 209.76 125.72 210.47 126 210.72C126.27 210.96 126.72 219.79 127.5 249.49L134.75 249.25C139.76 249.08 142.2 249.39 142.63 250.25C143.02 251.01 138.81 255.9 131.88 262.72C125.62 268.89 119.94 274.18 119.25 274.47C118.56 274.76 117.38 274.66 116.63 274.25C115.87 273.84 110.25 268.77 104.14 263C98.02 257.22 93.02 251.94 93.01 251.25C93 250.36 95.16 250 108 250L108.05 231.45C108.09 213.23 108.13 212.87 110.5 210.45C112.27 208.65 113.98 208 116.95 208ZM401 372.08C637.2 372 665.12 372.15 670.5 373.56C673.8 374.42 678.69 376.33 681.36 377.81C684.03 379.29 688.79 383.2 691.93 386.5C695.08 389.8 698.83 394.52 700.27 397C701.72 399.47 703.6 404.2 704.45 407.5C705.8 412.68 706.01 424.13 706.01 491.5C706.01 559.1 705.8 570.3 704.44 575.5C703.58 578.8 701.67 583.74 700.19 586.47C698.71 589.21 695.02 593.95 692 597.02C688.47 600.59 683.81 603.92 679 606.29C673 609.24 669.6 610.19 662 611.04C655.49 611.77 571.29 612.01 394.5 611.8C138.2 611.5 136.46 611.49 130.5 609.47C127.2 608.35 122.06 605.88 119.09 603.97C116.11 602.06 111.44 598.02 108.71 595C105.98 591.97 102.62 587.25 101.25 584.5C99.88 581.75 98.14 576.57 97.4 573C96.32 567.86 96.03 551.02 96.02 492.5C96.02 445.21 96.4 416.15 97.07 412C97.65 408.42 99.52 402.57 101.23 399C103.18 394.91 106.59 390.24 110.42 386.4C113.76 383.04 118.97 379.03 122 377.47C125.02 375.92 129.75 374.09 132.5 373.41C136.41 372.44 194.83 372.15 401 372.08ZM126.75 394.5C124.69 395.87 121.54 399.06 119.75 401.57C117.96 404.09 115.83 407.8 115.01 409.82C113.75 412.94 113.47 424.75 113.21 487.5C113 539.49 113.24 563.43 114.04 568C114.66 571.57 115.81 575.74 116.59 577.25C117.36 578.76 119.74 581.91 121.86 584.25C124.04 586.65 128.29 589.69 131.61 591.23L137.5 593.96L667.5 593.5C673.7 590.19 677.44 587.27 679.82 584.87C682.2 582.47 685.12 578.47 686.32 576L688.5 571.5L688.5 411.5C684.63 404.03 681.7 400.13 679.5 398.02C677.3 395.9 673.47 393.12 671 391.83L666.5 389.5C173.57 389.11 137.97 389.28 134.5 390.54C132.3 391.34 128.81 393.12 126.75 394.5ZM197.5 418.06C198.7 418.03 202.61 421.12 207.26 425.76C211.52 430.02 215.01 433.84 215.01 434.25C215 434.66 212.52 435 204 435L204 448.5C204 461 203.85 462.07 202 463C200.9 463.55 198.65 464 197 464C195.35 464 193.32 463.32 192.5 462.5C191.32 461.32 191 458.22 191 435L185.5 435C182.47 435 180 434.66 179.99 434.25C179.98 433.84 183.47 430.04 187.74 425.8C192.06 421.52 196.39 418.09 197.5 418.06ZM762 428L771 428L770.97 437.5L776.74 438.26C779.91 438.68 785.65 439.9 789.5 440.98C793.35 442.07 796.95 443.4 797.5 443.94C798.17 444.6 797.69 446.87 796.09 450.72C794.76 453.9 793.3 457.29 792.84 458.25C792.04 459.91 791.73 459.9 786.75 458.13C783.86 457.11 779.14 455.98 771 455L770.97 473.5L779.67 477.5C784.45 479.7 790.34 483.3 792.75 485.5C795.43 487.94 797.77 491.25 798.74 494C799.87 497.18 800.15 500.12 799.7 504C799.28 507.69 798.13 510.82 796.23 513.5C794.67 515.7 791.39 518.74 788.95 520.25C786.5 521.77 781.57 523.6 771.5 525.67L771 539L762 539L762.02 526.5L753.26 525.27C748.44 524.59 742.02 523.2 733.5 520.31L733.25 511.66C733.1 506.39 733.39 503 734 503C734.55 503 736.69 503.7 738.75 504.56C740.81 505.43 746.1 507 750.5 508.06C754.9 509.12 759.29 509.99 760.25 509.99C761.8 510 762 508.86 762 490L752.75 485.59C747.42 483.05 741.89 479.56 739.69 477.34C737.12 474.74 735.38 471.72 734.32 468C732.98 463.31 732.94 461.69 734.04 457C735.01 452.84 736.32 450.51 739.41 447.44C741.82 445.04 745.86 442.48 749.25 441.19C752.41 439.98 755.9 439 757 439C758.1 439 759.67 438.77 760.5 438.5C761.57 438.14 762 436.56 762 433L762 428ZM754.8 458.49C754.38 459.05 754.01 460.62 753.98 462C753.96 463.37 754.74 465.23 755.72 466.12C756.7 467.01 758.51 468.25 759.75 468.87C761.98 469.99 762 469.95 762 462.5C762 457.15 761.64 455.01 760.75 455.03C760.06 455.05 758.61 455.6 757.53 456.27C756.45 456.93 755.22 457.93 754.8 458.49ZM773.05 509C774.17 509 776.2 507.87 777.55 506.5C778.9 505.12 780 503.32 780 502.5C780 501.67 779.55 500.1 779 499C778.45 497.9 776.65 496.32 775 495.5C773.35 494.67 771.77 494 771.5 494C771.22 494 771 497.37 771 501.5C771 508.39 771.17 509 773.05 509ZM269 460L320 460L320 471L302 471L302 515L288 515L288 471L269 471L269 460ZM449.21 459.79L465.35 460.15C480.34 460.49 481.82 460.69 486 463.01C489.18 464.77 491.16 466.82 492.76 470C494 472.47 495.01 476.19 495.01 478.25C495 480.31 494.52 483.24 493.93 484.75C493.35 486.26 491.88 488.57 490.68 489.88C489.48 491.19 486.7 493.09 484.5 494.11C481.65 495.42 478.12 495.96 464 496L464 515L449 515L449.1 487.4L449.21 459.79ZM464 486C475.43 485.33 476.81 484.86 478.29 482.88C479.28 481.57 480.07 479.37 480.06 478C480.05 476.62 479.13 474.49 478.02 473.25C476.35 471.39 474.96 471 470 471L464 471L464 486ZM602 462L615 462L615 474L629 474L629 484L615 484L615.25 493.91C615.39 499.37 615.88 504.2 616.35 504.66C616.81 505.12 619.62 505.61 628 506L628 515L618.75 515.01C611.51 515.01 608.97 514.63 607.06 513.26C605.72 512.29 604.03 510.04 603.31 508.25C602.52 506.29 602 500.84 602 484L599 484C596.07 484 596 483.89 596 479C596 474.11 596.07 474 602 474L602 462ZM336 473.1C339.02 473.06 343.29 473.59 345.48 474.27C347.67 474.94 351.11 477.07 353.12 479C355.22 481.01 357.25 484.21 357.88 486.5C358.49 488.7 358.98 492.75 358.97 495.5C358.96 498.25 358.13 502.3 357.11 504.5C356.09 506.7 354.19 509.49 352.88 510.69C351.57 511.9 348.81 513.59 346.75 514.44C344.53 515.37 340.25 515.97 336.25 515.92C332.54 515.88 328.04 515.32 326.26 514.67C324.47 514.03 321.59 512.15 319.84 510.5C318.1 508.85 316.07 506.04 315.34 504.25C314.6 502.46 314.01 498.19 314.02 494.75C314.04 490.95 314.74 486.93 315.83 484.5C316.81 482.3 319.17 479.27 321.06 477.77C322.95 476.26 325.85 474.62 327.5 474.1C329.15 473.59 332.97 473.14 336 473.1ZM328.39 493.88C328.02 500.69 328.13 501.13 331 504C332.73 505.73 335.06 507 336.5 507C337.88 507 340.17 505.99 341.6 504.75C343.55 503.07 344.34 501.24 344.74 497.5C345.03 494.75 344.99 491.26 344.64 489.75C344.29 488.24 343.1 486.1 342 485C340.79 483.79 338.67 483 336.62 483C334.77 483 332.24 483.85 331.01 484.88C329.17 486.43 328.71 488.02 328.39 493.88ZM395.5 473C397.7 473 401.07 473.83 403 474.85C404.92 475.87 407.75 478.69 409.27 481.11C411 483.85 412.28 487.56 412.67 491C413.03 494.2 412.78 498.59 412.07 501.5C411.4 504.25 409.76 507.96 408.42 509.75C407.09 511.54 404.54 513.73 402.75 514.63C400.53 515.74 397.71 516.13 393.82 515.88C389.15 515.57 387.6 514.97 381.96 509.5L382 531L369 531L369 474L375.5 474C381.93 474 382 474.03 381.97 476.75C381.94 479.35 382.03 479.41 383.72 477.82C384.7 476.9 386.85 475.44 388.5 474.58C390.15 473.72 393.3 473.01 395.5 473ZM382.86 488.75C382.39 489.99 382 492.91 382 495.25C382.01 497.59 382.82 500.85 383.81 502.5C384.8 504.15 386.82 505.84 388.3 506.25C389.93 506.7 392.08 506.51 393.72 505.75C395.22 505.06 397.01 503.37 397.71 502C398.4 500.62 398.98 497.36 398.99 494.75C398.99 492.14 398.39 488.76 397.64 487.25C396.89 485.74 395.54 484.16 394.64 483.75C393.74 483.34 391.68 483 390.07 483C388.46 483 386.37 483.79 385.43 484.75C384.49 485.71 383.33 487.51 382.86 488.75ZM523.5 473.09C526.25 473.05 530.19 473.46 532.25 474.01C534.31 474.55 537.82 476.69 540.05 478.75C542.28 480.81 544.6 484.07 545.21 486C545.82 487.92 546.32 491.97 546.31 495C546.31 498.76 545.55 502.06 543.9 505.44C542.37 508.59 540.08 511.31 537.57 512.94C534.35 515.04 532.2 515.56 525.57 515.83C520.07 516.06 516.23 515.68 513.5 514.65C511.3 513.81 508.04 511.52 506.25 509.56C504.46 507.6 502.55 504.31 502.01 502.25C501.46 500.19 501 496.47 500.99 494C500.98 491.02 501.91 487.68 503.74 484.12C505.5 480.7 507.77 478 510 476.68C511.92 475.55 514.63 474.29 516 473.9C517.38 473.5 520.75 473.14 523.5 473.09ZM515.86 488.75C515.39 489.99 515 492.69 515 494.75C515 496.81 515.79 500.05 516.75 501.94C517.87 504.14 519.58 505.71 521.5 506.28C523.6 506.92 525.33 506.78 527.28 505.84C528.81 505.1 530.61 503.15 531.28 501.5C531.95 499.85 532.41 496.25 532.31 493.5C532.19 490.36 531.4 487.57 530.21 486C528.83 484.2 527.17 483.42 524.27 483.2C521.42 482.98 519.74 483.42 518.48 484.7C517.51 485.69 516.33 487.51 515.86 488.75ZM571.75 473.09C575.19 473.04 580.25 473.45 588 475L588 480C588 482.75 587.89 484.99 587.75 484.99C587.61 484.98 585.02 484.31 582 483.5C578.97 482.69 574.62 482.02 572.32 482.01C569.96 482.01 567.46 482.65 566.57 483.5C565.71 484.32 565.22 485.67 565.5 486.5C565.77 487.32 567.01 488.21 568.25 488.47C569.49 488.73 572.97 489.37 576 489.9C579.02 490.42 582.63 491.26 584 491.77C585.38 492.28 587.56 494 588.85 495.6C590.78 497.98 591.13 499.42 590.85 503.63C590.62 506.96 589.8 509.56 588.5 511.02C587.4 512.26 585.04 513.89 583.25 514.64C581.37 515.43 576.42 516 571.5 516C566.82 516 560.97 515.55 554 514L554 509C554 506.25 554.11 503.99 554.25 503.98C554.39 503.97 556.52 504.65 559 505.5C561.47 506.35 566.22 507.03 569.55 507.02C573.05 507.01 576.11 506.47 576.82 505.75C577.49 505.06 578.03 503.71 578.02 502.75C578.01 501.58 576.76 500.67 574.25 500.01C572.19 499.46 569.6 499 568.5 498.99C567.4 498.98 564.75 498.41 562.61 497.73C560.47 497.05 557.64 495.37 556.32 494C554.39 491.98 553.92 490.44 553.92 486C553.92 481.32 554.34 480.08 556.71 477.69C558.25 476.14 560.85 474.49 562.5 474.03C564.15 473.56 568.31 473.14 571.75 473.09ZM168.25 479.12C170.86 479.05 174.01 479.52 175.25 480.16C176.49 480.8 178.05 482.04 178.72 482.91C179.39 483.79 179.95 485.96 179.97 487.75C179.99 490.42 178.97 491.99 168.5 502.08L174.25 502.04C179.98 502 180 502.01 180 508L159 508L159 505.5C159 503.8 160.49 501.65 163.67 498.75C166.24 496.41 169.17 493.71 170.17 492.75C171.18 491.79 172.01 489.99 172.02 488.75C172.03 487.51 171.46 485.93 170.77 485.23C170.07 484.54 168.71 483.97 167.75 483.98C166.79 483.99 164.65 484.67 160 487L159.76 483.57C159.57 480.86 159.93 480.05 161.51 479.69C162.6 479.44 165.64 479.18 168.25 479.12ZM196.4 479C198.38 479 201.24 479.62 202.75 480.39C204.26 481.15 206.17 483.02 207 484.54C207.91 486.22 208.5 489.95 208.5 494.08C208.5 499.39 208.05 501.46 206.4 503.68C205.25 505.23 202.78 507.04 200.9 507.69C198.56 508.51 196.34 508.59 193.75 507.94C191.69 507.42 189.32 505.99 188.49 504.75C187.66 503.51 186.54 500.7 186 498.5C185.47 496.3 185.31 492.47 185.66 490C186.12 486.78 187.23 484.57 189.55 482.25C192.01 479.79 193.67 479 196.4 479ZM192.9 493.22C192.96 495.85 193.45 499.12 194 500.5C194.55 501.87 195.81 503 196.8 503C197.79 503 199.15 502.44 199.82 501.75C200.51 501.03 201.03 497.83 201.02 494.25C201.01 490.81 200.55 487.1 200 486C199.45 484.9 198.35 484 197.55 484C196.75 484 195.36 485 194.45 486.22C193.42 487.62 192.84 490.22 192.9 493.22ZM224.27 478.99C226.72 478.99 229.52 479.72 230.94 480.74C232.28 481.71 233.97 483.96 234.69 485.75C235.41 487.54 236 491.25 236 494C236 496.75 235.37 500.24 234.6 501.75C233.84 503.26 232.37 505.3 231.35 506.28C230.18 507.4 227.84 508.09 225 508.15C222.52 508.21 219.38 507.56 218 506.72C216.63 505.88 214.9 503.91 214.17 502.34C213.23 500.32 213.04 497.37 213.5 492.13C214.07 485.75 214.55 484.38 217.1 481.88C219.4 479.63 220.95 479 224.27 478.99ZM220.32 492.31C220.05 495.16 220.31 498.74 220.91 500.25C221.51 501.76 222.79 503.02 223.75 503.04C224.71 503.07 226.15 502.28 226.95 501.29C227.86 500.17 228.4 497.25 228.4 493.5C228.4 489.75 227.86 486.83 226.95 485.71C226.15 484.72 224.99 483.93 224.36 483.96C223.74 483.98 222.68 484.7 222.02 485.56C221.36 486.42 220.59 489.46 220.32 492.31ZM197.75 527.03C199.54 527.01 201.67 527.67 202.5 528.5C203.68 529.68 204 532.78 204 556L209.5 556C212.52 556 215 556.34 214.99 556.75C214.99 557.16 211.5 560.99 207.24 565.26C202.98 569.52 198.82 573.02 198 573.03C197.17 573.05 192.79 569.67 188.25 565.53C183.71 561.39 180 557.55 180 557C180 556.45 182.47 556 191 556L190.83 542.55C190.67 530.21 190.82 529.02 192.58 528.08C193.64 527.52 195.96 527.05 197.75 527.03ZM607 654L612.75 656.18C615.93 657.39 620.44 660.19 622.83 662.43C625.21 664.67 628.36 668.97 632.5 677.5L632.5 737C632.5 793.51 632.4 796.75 630.56 801.5C629.49 804.25 626.79 808.47 624.56 810.87C622.33 813.27 618.25 816.42 610.5 820.5L412 820.5C213.95 820.5 213.49 820.5 209 818.45C206.52 817.32 202.59 814.51 200.25 812.2C197.91 809.89 194.99 806.09 191.5 799.5L191.25 739.25C191.01 681.18 191.07 678.81 192.99 673.75C194.09 670.86 196.24 667.15 197.78 665.5C199.31 663.85 202.13 661.27 204.04 659.76C205.94 658.25 209.52 656.37 212 655.58C215.86 654.34 244.46 654.12 607 654ZM209.89 670.2C209.01 670.91 207.08 673.3 205.61 675.5L202.94 679.5C203 792.97 203.07 795.14 205 799C206.13 801.26 208.82 804.2 211.18 805.75L215.35 808.5L608.81 808.5C614.77 803.76 617.52 800.39 618.76 797.94L621.02 793.5C620.96 685.2 620.83 681.24 619.11 677.5C618.09 675.3 616.19 672.51 614.88 671.31C613.57 670.1 610.81 668.41 608.75 667.56C605.4 666.17 584.36 666 411.25 666.04C246.73 666.07 217.05 666.29 214.5 667.49C212.85 668.26 210.78 669.48 209.89 670.2ZM267.72 684C267.87 684 270.75 686.59 280.23 695.5L272.5 696.5L271.5 715.5L268.5 715.77C266.85 715.93 264.92 715.48 264.21 714.77C263.35 713.93 262.93 710.73 263 697L260.25 697.03C258.74 697.04 257.15 696.71 256.72 696.28C256.3 695.85 258.53 692.91 261.69 689.75C264.85 686.59 267.56 684 267.72 684ZM673 695C675.76 695 676 695.28 676 698.5C676 701.78 676.2 702 679.25 701.99C681.04 701.98 684.86 702.66 687.75 703.49C690.98 704.42 692.86 705.48 692.64 706.25C692.44 706.94 691.66 709.19 690.89 711.26C690.13 713.33 689.05 715.03 688.5 715.03C687.95 715.03 686.15 714.61 684.5 714.1C682.85 713.59 680.26 712.9 676 712L676 724L682.72 727.25C687.27 729.45 690.19 731.63 691.75 734C693.02 735.92 694.04 738.96 694.03 740.75C694.01 742.54 693.21 745.63 692.25 747.62C691.29 749.61 689.15 752.06 687.5 753.06C685.85 754.07 682.7 755.27 680.5 755.74C676.66 756.55 676.49 756.75 676.25 760.79C676.01 764.75 675.82 765 673 765C670.2 765 670 764.75 670.03 757.5L663.77 756.34C660.32 755.71 656.26 754.69 654.75 754.09C652.22 753.09 652 752.57 652 747.5C652 744.47 652.11 742 652.25 742C652.39 742 654.75 742.84 657.5 743.86C660.25 744.89 664.19 746.01 670 747L669.97 734.5L663.34 731C659.7 729.07 655.85 726.37 654.8 725C653.74 723.62 652.66 720.47 652.38 718C652 714.49 652.37 712.78 654.06 710.24C655.25 708.45 657.64 706.1 659.36 705.02C661.09 703.94 664.19 702.82 666.25 702.53C669.77 702.03 670 701.78 670 698.5C670 695.28 670.24 695 673 695ZM667.11 713.46C665.8 714.37 664.79 715.99 664.87 717.06C664.94 718.13 665.9 719.45 667 720C668.1 720.55 669.23 720.89 669.52 720.75C669.8 720.61 669.92 718.54 669.77 716.16L669.49 711.81L667.11 713.46ZM677.3 746C678.01 746 679.15 745.44 679.82 744.75C680.49 744.06 681.04 742.82 681.05 742C681.06 741.17 680.26 739.72 679.28 738.78C678.3 737.83 677.16 737.04 676.75 737.03C676.34 737.01 676 739.02 676 741.5C676 744.53 676.43 746 677.3 746ZM317 714L352 714L352 721L339 721L339 751L329 751L329 721L317 721L317 714ZM440 714L451 714C458.78 714 462.88 714.44 465 715.5C466.65 716.32 468.68 718.01 469.51 719.25C470.34 720.49 471.02 723.52 471.02 726C471.02 728.47 470.34 731.51 469.51 732.75C468.68 733.99 466.65 735.67 465 736.5C463.33 737.33 459.33 738 450 738L450 751L440 751L440 714ZM450 731C456.09 731 458.56 730.32 459.43 729.5C460.29 728.67 461 727.1 461 726C461 724.9 460.32 723.32 459.5 722.5C458.67 721.67 456.22 721 454 721L450 721L450 731ZM544 715L554 715L554 723L558.5 723C562.98 723 563 723.02 563 726.5C563 729.98 562.98 730 554 730L554.5 744.5L558.25 744.75C561.69 744.98 562 745.24 562 751L555.75 751.02C552.29 751.03 548.7 750.47 547.71 749.77C546.72 749.07 545.5 746.7 544.98 744.5C544.47 742.3 544.04 738.14 544.02 735.25C544 730.67 543.74 730 542 730C540.38 730 540 729.33 540 726.5C540 723.67 540.38 723 542 723C543.67 723 544 722.33 544 719L544 715ZM362.5 722.05C363.6 722.03 366.07 722.44 368 722.97C369.92 723.5 372.85 725.32 374.5 727.03C377.07 729.7 377.54 731.03 377.8 736.32C378.04 741.19 377.67 743.19 376.05 745.75C374.92 747.54 372.42 749.67 370.5 750.5C368.57 751.32 364.86 752.01 362.25 752.03C358.94 752.05 356.44 751.36 354 749.76C352.07 748.49 349.71 745.89 348.75 743.98C347.79 742.07 347 739.04 347 737.25C347 735.46 347.61 732.54 348.34 730.75C349.08 728.96 350.53 726.82 351.55 726C352.57 725.17 355 723.96 356.95 723.29C358.9 722.63 361.4 722.07 362.5 722.05ZM356.9 737.72C356.96 740.08 357.67 742.67 358.5 743.5C359.32 744.32 361.24 745.02 362.75 745.04C364.26 745.07 366.17 744.32 367 743.39C367.83 742.44 368.5 739.79 368.5 737.45C368.5 734.59 367.85 732.51 366.5 731.07C365.4 729.9 363.51 728.95 362.3 728.97C361.09 728.99 359.36 730 358.45 731.22C357.47 732.54 356.84 735.18 356.9 737.72ZM404.5 722.48C406.15 722.81 408.4 723.65 409.5 724.36C410.6 725.08 412.29 727.31 413.25 729.33C414.21 731.35 415 735.02 415 737.5C415 739.97 414.32 743.35 413.5 745C412.67 746.65 410.76 748.92 409.25 750.03C407.72 751.17 404.95 752.07 403 752.07C401.05 752.07 398.28 751.17 394 748L394 762L385 762L385 723L389.5 723C392.72 723 393.98 723.4 393.91 724.39C393.85 725.48 394.67 725.36 397.66 723.84C400.18 722.57 402.53 722.1 404.5 722.48ZM393.99 736.75C393.99 738.81 394.66 741.51 395.49 742.75C396.5 744.25 398 745 400 745C402.48 745 403.26 744.39 404.5 741.5C405.38 739.45 405.74 736.86 405.37 735.25C405.02 733.74 404 731.7 403.12 730.72C402.23 729.74 400.71 728.95 399.75 728.97C398.79 728.99 397.1 729.9 396 731C394.72 732.28 394 734.34 393.99 736.75ZM493 722.53C495.47 722.83 498.85 723.91 500.5 724.93C502.15 725.94 504.15 728.29 504.95 730.14C505.75 731.99 506.35 735.75 506.28 738.5C506.19 741.69 505.46 744.41 504.25 746C503.21 747.37 500.81 749.29 498.93 750.25C497.04 751.21 493.59 752 491.25 752C488.91 752 485.54 751.4 483.75 750.68C481.96 749.95 479.58 748.26 478.46 746.93C477.34 745.59 476.11 742.81 475.71 740.75C475.32 738.69 475.42 735.31 475.94 733.25C476.45 731.19 477.69 728.47 478.69 727.21C479.68 725.95 482.3 724.26 484.5 723.45C486.98 722.54 490.21 722.19 493 722.53ZM484.99 736.75C484.99 738.81 485.66 741.51 486.49 742.75C487.5 744.25 489 745 491 745C493.2 745 494.45 744.27 495.67 742.25C496.87 740.28 497.17 738.36 496.72 735.5C496.38 733.3 495.29 730.93 494.3 730.23C493.31 729.54 491.71 728.97 490.75 728.98C489.79 728.99 488.1 729.9 487 731C485.72 732.28 485 734.34 484.99 736.75ZM527 722.6C530.57 722.9 533.84 723.34 534.25 723.57C534.66 723.81 535 725.57 535 727.5C535 730.83 534.88 730.95 532.5 730C531.13 729.45 527.75 729 525 729C520.67 729 520 729.27 520 731C520 732.68 521.01 733.16 526.25 734.02C530.37 734.69 533.28 735.8 534.78 737.27C536.24 738.7 537.04 740.66 537.03 742.75C537.01 744.86 536.1 746.93 534.43 748.65C532.49 750.66 530.59 751.42 526.68 751.78C523.83 752.04 519.36 751.97 516.75 751.63C512.11 751.01 512 750.92 512 747.5C512 744.38 512.25 744.06 514.25 744.53C515.49 744.81 518.52 745.29 521 745.57C523.47 745.86 526.17 745.66 527 745.13C527.82 744.61 528.23 743.57 527.9 742.84C527.57 742.1 524.64 740.95 521.4 740.28C518.15 739.61 514.75 738.26 513.83 737.28C512.91 736.3 511.85 734.37 511.48 733C511.07 731.47 511.43 729.24 512.4 727.25C513.46 725.09 515.09 723.67 517.25 723.03C519.04 722.5 523.42 722.31 527 722.6ZM268.96 726.68C270.36 727.01 272.09 727.78 272.81 728.39C273.53 729 274.54 731.07 275.04 733C275.6 735.12 275.6 737.88 275.05 740C274.54 741.92 273.36 744.17 272.41 745C271.47 745.82 269.26 746.5 267.5 746.5C265.74 746.5 263.53 745.82 262.59 745C261.64 744.17 260.45 741.81 259.93 739.75C259.23 736.91 259.38 735.1 260.58 732.28C261.45 730.24 263.12 728.01 264.29 727.32C265.46 726.64 267.57 726.35 268.96 726.68ZM265.04 737.63C265.42 741.68 265.84 742.5 267.5 742.5C269.28 742.5 269.5 741.83 269.5 736.51C269.5 731.69 269.17 730.46 267.81 730.19C266.88 730 265.78 730.51 265.35 731.3C264.93 732.1 264.79 734.95 265.04 737.63ZM287.5 726.65C288.6 726.93 290.51 728.25 291.75 729.58C293.3 731.25 294 733.24 294 736C294 738.2 293.44 741.13 292.75 742.52C292.06 743.9 290.38 745.5 289 746.06C287.28 746.77 285.64 746.76 283.75 746.04C282.24 745.47 280.32 743.99 279.49 742.75C278.66 741.51 277.98 738.7 277.98 736.5C277.98 734.3 278.71 731.46 279.59 730.18C280.48 728.9 282.17 727.47 283.35 727C284.53 726.53 286.4 726.37 287.5 726.65ZM282.89 736.68C282.93 738.23 283.6 740.4 284.37 741.5C285.63 743.29 285.96 743.34 287.44 742C288.35 741.17 289.07 739.05 289.04 737.25C289.02 735.46 288.55 733.1 288 732C287.45 730.9 286.56 730 286.03 730C285.49 730 284.55 730.87 283.94 731.93C283.32 733 282.85 735.14 282.89 736.68ZM252 727L252 735C252 742.33 252.17 743 254 743C255.11 743 256 743.67 256 744.5C256 745.68 254.61 746 249.5 746C244.39 746 243 745.68 243 744.5C243 743.67 243.89 743 245 743C246.78 743 247 742.33 247 737C247 731.67 246.78 731 245 731C243.67 731 243 730.33 243 729C243 727.3 243.67 727 252 727ZM267.75 759.06C267.89 759.03 268.9 759.45 270 760C271.78 760.89 272 762 272 779L280.06 779L274.28 785.01C271.1 788.32 268.05 791.02 267.5 791.02C266.95 791.02 264.13 788.66 261.22 785.76C258.32 782.87 256.26 780.16 256.64 779.75C257.02 779.34 258.61 779 263 779L262.82 769.97C262.64 761.24 262.72 760.9 265.07 760.03C266.41 759.53 267.61 759.1 267.75 759.06ZM402.5 865C402.78 865 411.1 881.2 421 901C430.9 920.8 439 937.45 439 938C439 938.62 434 939 413 939L412.5 1303.84L410 1306.45C408.24 1308.28 406.47 1309.05 404 1309.05C401.53 1309.05 399.76 1308.28 395.5 1303.84L395 939L365 939L383.5 902C393.68 881.65 402.23 865 402.5 865ZM594 1258C596.76 1258 597 1258.28 597 1261.5C597 1264.78 597.2 1265 600.25 1264.99C602.04 1264.98 605.86 1265.66 608.75 1266.49C611.98 1267.42 613.86 1268.48 613.64 1269.25C613.44 1269.94 612.66 1272.19 611.89 1274.26C611.13 1276.33 610.05 1278.03 609.5 1278.03C608.95 1278.03 607.15 1277.61 605.5 1277.1C603.85 1276.59 601.26 1275.9 597 1275L597 1287L603.72 1290.25C608.27 1292.45 611.19 1294.63 612.75 1297C614.02 1298.92 615.04 1301.96 615.03 1303.75C615.01 1305.54 614.21 1308.63 613.25 1310.62C612.29 1312.61 610.15 1315.06 608.5 1316.06C606.85 1317.07 603.7 1318.27 601.5 1318.74C597.66 1319.55 597.49 1319.75 597.25 1323.79C597.01 1327.75 596.82 1328 594 1328C591.2 1328 591 1327.75 591.03 1320.5L584.77 1319.34C581.32 1318.71 577.26 1317.69 575.75 1317.09C573.22 1316.09 573 1315.57 573 1310.5C573 1307.47 573.11 1305 573.25 1305C573.39 1305 575.75 1305.84 578.5 1306.86C581.25 1307.89 585.19 1309.01 591 1310L590.97 1297.5L584.34 1294C580.7 1292.07 576.85 1289.37 575.8 1288C574.74 1286.62 573.66 1283.47 573.38 1281C573 1277.49 573.37 1275.78 575.06 1273.24C576.25 1271.45 578.64 1269.1 580.36 1268.02C582.09 1266.94 585.19 1265.82 587.25 1265.53C590.77 1265.03 591 1264.78 591 1261.5C591 1258.28 591.24 1258 594 1258ZM588.11 1276.46C586.8 1277.37 585.79 1278.99 585.87 1280.06C585.94 1281.13 586.9 1282.45 588 1283C589.1 1283.55 590.23 1283.89 590.52 1283.75C590.8 1283.61 590.92 1281.54 590.77 1279.16L590.49 1274.81L588.11 1276.46ZM598.3 1309C599.01 1309 600.15 1308.44 600.82 1307.75C601.49 1307.06 602.04 1305.82 602.05 1305C602.06 1304.17 601.26 1302.72 600.28 1301.78C599.3 1300.83 598.16 1300.04 597.75 1300.03C597.34 1300.01 597 1302.02 597 1304.5C597 1307.53 597.43 1309 598.3 1309ZM180 1263C182.76 1263 183 1263.28 183 1266.5C183 1269.78 183.2 1270 186.25 1269.99C188.04 1269.98 191.86 1270.66 194.75 1271.49C197.98 1272.42 199.86 1273.48 199.64 1274.25C199.44 1274.94 198.66 1277.19 197.89 1279.26C197.13 1281.33 196.05 1283.03 195.5 1283.03C194.95 1283.03 193.15 1282.61 191.5 1282.1C189.85 1281.59 187.26 1280.9 183 1280L183 1292L189.72 1295.25C194.27 1297.45 197.19 1299.63 198.75 1302C200.02 1303.92 201.04 1306.96 201.03 1308.75C201.01 1310.54 200.21 1313.63 199.25 1315.62C198.29 1317.61 196.15 1320.06 194.5 1321.06C192.85 1322.07 189.7 1323.27 187.5 1323.74C183.66 1324.55 183.49 1324.75 183.25 1328.79C183.01 1332.75 182.82 1333 180 1333C177.2 1333 177 1332.75 177.03 1325.5L170.77 1324.34C167.32 1323.71 163.26 1322.69 161.75 1322.09C159.22 1321.09 159 1320.57 159 1315.5C159 1312.47 159.11 1310 159.25 1310C159.39 1310 161.75 1310.84 164.5 1311.86C167.25 1312.89 171.19 1314.01 177 1315L176.97 1302.5L170.34 1299C166.7 1297.07 162.85 1294.37 161.8 1293C160.74 1291.62 159.66 1288.47 159.38 1286C159 1282.49 159.37 1280.78 161.06 1278.24C162.25 1276.45 164.64 1274.1 166.36 1273.02C168.09 1271.94 171.19 1270.82 173.25 1270.53C176.77 1270.03 177 1269.78 177 1266.5C177 1263.28 177.24 1263 180 1263ZM174.11 1281.46C172.8 1282.37 171.79 1283.99 171.87 1285.06C171.94 1286.13 172.9 1287.45 174 1288C175.1 1288.55 176.23 1288.89 176.52 1288.75C176.8 1288.61 176.92 1286.54 176.77 1284.16L176.49 1279.81L174.11 1281.46ZM184.3 1314C185.01 1314 186.15 1313.44 186.82 1312.75C187.49 1312.06 188.04 1310.82 188.05 1310C188.06 1309.17 187.26 1307.72 186.28 1306.78C185.3 1305.83 184.16 1305.04 183.75 1305.03C183.34 1305.01 183 1307.02 183 1309.5C183 1312.53 183.43 1314 184.3 1314ZM288.5 1312.35C300.45 1312.56 303.09 1312.9 306.5 1314.69C308.7 1315.84 312.3 1317.3 314.5 1317.94C316.7 1318.58 319.85 1320.22 321.5 1321.58C323.15 1322.94 324.84 1324.05 325.25 1324.03C325.66 1324.01 328.98 1326.81 332.61 1330.25C336.25 1333.69 341.14 1339.42 343.48 1343C345.82 1346.57 348.32 1351.3 349.02 1353.5C349.73 1355.7 351.25 1359.3 352.4 1361.5C354.26 1365.03 354.5 1367.19 354.48 1380C354.45 1394.02 354.34 1394.77 351.21 1402.5C349.43 1406.9 347.41 1411.46 346.73 1412.63C346.05 1413.8 344.21 1416.72 342.64 1419.13C341.06 1421.53 337.69 1425.67 335.14 1428.32C332.59 1430.97 327.57 1435.07 324 1437.44C320.42 1439.81 315.7 1442.32 313.5 1443.02C311.3 1443.73 307.7 1445.24 305.5 1446.38C302.23 1448.07 299.21 1448.52 289 1448.81C282.13 1449.01 274.7 1448.72 272.5 1448.16C270.3 1447.61 265.57 1445.97 262 1444.53C258.42 1443.08 254.6 1441.47 253.5 1440.94C252.4 1440.42 249.21 1438.3 246.42 1436.24C243.62 1434.18 239.57 1430.76 237.42 1428.64C235.26 1426.51 232.05 1422.69 230.29 1420.14C228.52 1417.59 226.43 1414.15 225.63 1412.5C224.84 1410.85 222.91 1406.35 221.35 1402.5C218.62 1395.8 218.5 1394.82 218.53 1379.5C218.56 1364.07 218.65 1363.31 221.28 1358.25C222.78 1355.36 224 1352.44 224.01 1351.75C224.01 1351.06 224.8 1349.32 225.76 1347.88C226.71 1346.45 228.79 1343.3 230.37 1340.88C231.94 1338.47 234.87 1334.76 236.87 1332.63C238.86 1330.5 242.91 1327.12 245.86 1325.13C248.8 1323.13 252.18 1320.95 253.36 1320.27C254.53 1319.59 258.42 1317.87 262 1316.43C265.57 1315 269.85 1313.44 271.5 1312.96C273.15 1312.49 280.8 1312.21 288.5 1312.35ZM505.5 1312.27C518.4 1312.53 519.93 1312.76 525 1315.25C528.02 1316.74 531.17 1317.98 532 1318C532.82 1318.02 535.14 1319.04 537.13 1320.27C539.13 1321.49 542.51 1323.67 544.63 1325.11C546.76 1326.54 551.54 1331.04 555.25 1335.11C558.97 1339.17 562.02 1342.95 562.03 1343.5C562.04 1344.05 563.36 1346.52 564.96 1349C566.89 1351.99 568.73 1357.26 570.43 1364.75C571.84 1370.94 573 1378.14 573 1380.75C573.01 1383.36 572.38 1387.97 571.61 1391C570.83 1394.02 569.69 1398.97 569.07 1402C568.45 1405.02 566.59 1409.52 564.94 1412C563.29 1414.47 561.96 1416.95 561.98 1417.5C561.99 1418.05 558.74 1421.95 554.75 1426.17C550.76 1430.38 545.02 1435.49 542 1437.52C538.97 1439.55 533.57 1442.33 530 1443.69C526.42 1445.06 521.92 1446.79 520 1447.54C517.77 1448.41 512.32 1448.92 505 1448.93C498.67 1448.94 491.92 1448.55 490 1448.05C488.07 1447.56 483.57 1445.99 480 1444.56C476.42 1443.13 472.57 1441.41 471.42 1440.73C470.28 1440.05 467.81 1438.6 465.92 1437.5C464.04 1436.4 458.78 1431.67 454.23 1427C449.2 1421.82 445.54 1417.13 444.88 1415C444.28 1413.07 442.7 1409.92 441.37 1408C439.6 1405.44 438.54 1401.69 437.4 1394C436.36 1386.97 436.06 1380.69 436.5 1375C436.85 1370.32 437.58 1364.25 438.1 1361.5C438.63 1358.75 440.12 1354.92 441.42 1353C442.72 1351.07 444.29 1347.92 444.9 1346C445.52 1344.05 449.22 1339.08 453.25 1334.79C457.24 1330.56 462.97 1325.43 466 1323.4C469.02 1321.37 474.42 1318.61 478 1317.27C481.57 1315.93 486.07 1314.2 488 1313.42C490.58 1312.37 495.16 1312.07 505.5 1312.27ZM719 1428C721.76 1428 722 1428.28 722 1431.5C722 1434.78 722.2 1435 725.25 1434.99C727.04 1434.98 730.86 1435.66 733.75 1436.49C736.98 1437.42 738.86 1438.48 738.64 1439.25C738.44 1439.94 737.66 1442.19 736.89 1444.26C736.13 1446.33 735.05 1448.03 734.5 1448.03C733.95 1448.03 732.15 1447.61 730.5 1447.1C728.85 1446.59 726.26 1445.9 722 1445L722 1457L728.72 1460.25C733.27 1462.45 736.19 1464.63 737.75 1467C739.02 1468.92 740.04 1471.96 740.03 1473.75C740.01 1475.54 739.21 1478.63 738.25 1480.62C737.29 1482.61 735.15 1485.06 733.5 1486.06C731.85 1487.07 728.7 1488.27 726.5 1488.74C722.66 1489.55 722.49 1489.75 722.25 1493.79C722.01 1497.75 721.82 1498 719 1498C716.2 1498 716 1497.75 716.03 1490.5L709.77 1489.34C706.32 1488.71 702.26 1487.69 700.75 1487.09C698.22 1486.09 698 1485.57 698 1480.5C698 1477.47 698.11 1475 698.25 1475C698.39 1475 700.75 1475.84 703.5 1476.86C706.25 1477.89 710.19 1479.01 716 1480L715.97 1467.5L709.34 1464C705.7 1462.07 701.85 1459.37 700.8 1458C699.74 1456.62 698.66 1453.47 698.38 1451C698 1447.49 698.37 1445.78 700.06 1443.24C701.25 1441.45 703.64 1439.1 705.36 1438.02C707.09 1436.94 710.19 1435.82 712.25 1435.53C715.77 1435.03 716 1434.78 716 1431.5C716 1428.28 716.24 1428 719 1428ZM713.11 1446.46C711.8 1447.37 710.79 1448.99 710.87 1450.06C710.94 1451.13 711.9 1452.45 713 1453C714.1 1453.55 715.23 1453.89 715.52 1453.75C715.8 1453.61 715.92 1451.54 715.77 1449.16L715.49 1444.81L713.11 1446.46ZM723.3 1479C724.01 1479 725.15 1478.44 725.82 1477.75C726.49 1477.06 727.04 1475.82 727.05 1475C727.06 1474.17 726.26 1472.72 725.28 1471.78C724.3 1470.83 723.16 1470.04 722.75 1470.03C722.34 1470.01 722 1472.02 722 1474.5C722 1477.53 722.43 1479 723.3 1479ZM290.25 1463.55C300.83 1463.9 305.21 1464.46 309.25 1466.02C312.14 1467.13 316.97 1468.68 320 1469.46C323.02 1470.25 328.2 1472.48 331.5 1474.42C334.8 1476.36 339.97 1479.73 343 1481.9C346.02 1484.08 351.15 1488.48 354.39 1491.68C357.62 1494.88 361.33 1499.19 362.64 1501.25C363.94 1503.31 365.34 1504.99 365.75 1504.97C366.16 1504.95 367.38 1506.86 368.46 1509.22C369.54 1511.57 371.42 1515.07 372.64 1517C373.86 1518.92 375.33 1522.41 375.93 1524.75C376.83 1528.31 376.72 1529.48 375.25 1531.98C374.29 1533.62 372.49 1535.42 371.25 1535.98C370.01 1536.54 365.96 1537.69 362.25 1538.54C358.54 1539.39 353.92 1541.11 352 1542.38C350.07 1543.65 346.92 1545.18 345 1545.79C343.07 1546.4 340.82 1547.65 340 1548.57C339.17 1549.49 336.7 1551.14 334.5 1552.23C332.3 1553.32 329.38 1555.3 328 1556.61C326.63 1557.93 323.02 1561.45 320 1564.43C316.97 1567.41 313.11 1571.57 311.42 1573.68C309.73 1575.78 307.5 1578.85 306.46 1580.5C305.43 1582.15 303.55 1584.74 302.29 1586.25C301.03 1587.76 300.01 1589.79 300.02 1590.75C300.03 1591.71 298.7 1594.52 297.06 1597C295.36 1599.56 293.58 1604.08 292.93 1607.5C292.3 1610.8 290.83 1615.75 289.66 1618.5C287.74 1623.01 287.53 1625.36 287.51 1642.5C287.5 1659.94 287.69 1661.99 289.8 1667.5C291.65 1672.33 291.89 1674.04 290 1679L286.63 1675.75C284.77 1673.96 280.48 1670.25 277.1 1667.5C273.71 1664.75 269.27 1661.05 267.22 1659.29C265.17 1657.52 263.16 1656.06 262.75 1656.04C262.34 1656.02 258.85 1653.75 248 1646L250.7 1642.25C252.19 1640.19 254.55 1637.31 255.95 1635.85C257.35 1634.4 259.99 1631.47 261.81 1629.35C263.64 1627.23 266.22 1623.92 267.56 1622C268.9 1620.07 271.16 1616.02 272.58 1613C274.01 1609.97 275.77 1606.82 276.5 1606C277.23 1605.17 278.52 1601.8 279.37 1598.5C280.22 1595.2 281.94 1590.25 283.2 1587.5C285.38 1582.76 285.5 1581.35 285.5 1560C285.5 1538.65 285.38 1537.24 283.2 1532.5C281.94 1529.75 280.22 1524.8 279.37 1521.5C278.52 1518.2 277.23 1514.82 276.5 1514C275.77 1513.17 274.01 1510.02 272.58 1507C271.16 1503.97 268.91 1499.92 267.58 1498C266.25 1496.07 263.8 1492.92 262.12 1491C260.45 1489.07 256.16 1484.35 252.59 1480.5C247.42 1474.93 246.34 1473.23 247.3 1472.21C247.96 1471.49 248.84 1470.93 249.25 1470.96C249.66 1470.98 253.49 1469.62 257.75 1467.93C262.01 1466.24 267.97 1464.47 271 1463.98C274.02 1463.5 282.69 1463.3 290.25 1463.55ZM508.75 1463.57C516.43 1463.84 522.58 1464.59 525.25 1465.58C527.59 1466.44 532.2 1468.05 535.5 1469.15C538.8 1470.25 542.29 1471.56 543.25 1472.07C544.89 1472.94 544.86 1473.27 542.75 1477.2C541.51 1479.51 537.87 1484.12 534.66 1487.45C531.45 1490.78 528.12 1494.85 527.26 1496.5C526.41 1498.15 524.7 1500.85 523.47 1502.5C522.24 1504.15 520.91 1506.62 520.52 1508C520.12 1509.37 518.75 1512.07 517.47 1514C516.18 1515.92 514.23 1520.87 513.14 1525C512.04 1529.12 510.34 1534.52 509.37 1537C507.9 1540.73 507.6 1544.67 507.6 1560C507.6 1575.33 507.9 1579.27 509.37 1583C510.34 1585.47 512.04 1590.87 513.14 1595C514.23 1599.12 516.18 1604.07 517.47 1606C518.75 1607.92 520.14 1610.62 520.55 1612C520.96 1613.37 522.78 1616.75 524.58 1619.5C526.39 1622.25 529.35 1626.27 531.18 1628.43C533.01 1630.59 535.88 1633.74 537.58 1635.43C539.27 1637.12 541.74 1640.23 543.08 1642.35C545.16 1645.66 545.29 1646.33 544 1647.14C543.17 1647.66 540.92 1648.98 539 1650.07C537.07 1651.17 533.88 1653.29 531.89 1654.79C529.9 1656.28 526.53 1658.83 524.39 1660.46C522.25 1662.09 518.36 1665.35 515.75 1667.71C513.14 1670.07 509.42 1672.67 507.5 1673.5C505.57 1674.32 503.97 1675.56 503.93 1676.25C503.89 1676.94 503.5 1676.6 503.06 1675.5C502.56 1674.27 502.78 1672.45 503.63 1670.75C504.38 1669.24 505.5 1663.84 506.12 1658.75C506.81 1653.05 506.97 1644.32 506.54 1636C506.13 1628.13 505.22 1620.83 504.34 1618.5C503.51 1616.3 501.81 1611.12 500.55 1607C499.29 1602.87 496.49 1596.12 494.34 1592C492.18 1587.87 488.44 1581.8 486.03 1578.5C483.63 1575.2 477.12 1568.1 471.58 1562.71C466.03 1557.33 461.05 1552.93 460.5 1552.93C459.95 1552.92 457.47 1551.38 455 1549.5C452.52 1547.62 450.05 1546.07 449.5 1546.06C448.95 1546.05 445.57 1544.53 442 1542.69C438.42 1540.84 432.8 1538.75 429.5 1538.05C426.2 1537.34 421.92 1535.96 420 1534.97C418.07 1533.98 415.49 1532.23 414.25 1531.09C412.2 1529.18 412.13 1528.8 413.46 1526.75C414.26 1525.51 415.86 1521.8 417.01 1518.5C418.16 1515.2 419.86 1511.66 420.8 1510.64C421.73 1509.61 423.4 1507.31 424.5 1505.51C425.6 1503.72 428.18 1500.06 430.23 1497.38C432.29 1494.69 436.34 1490.57 439.23 1488.21C442.13 1485.86 446.51 1482.37 448.96 1480.46C451.41 1478.56 453.89 1477 454.46 1477C455.03 1477.01 457.19 1475.88 459.25 1474.5C461.31 1473.13 467.84 1470.38 473.75 1468.39C479.66 1466.4 487.2 1464.41 490.5 1463.96C493.8 1463.5 502.01 1463.33 508.75 1463.57ZM181.5 1477.67C188.84 1478.05 193.1 1478.83 197.5 1480.61C200.8 1481.94 204.17 1483.01 205 1483C205.82 1482.98 208.75 1484.14 211.5 1485.58C214.25 1487.03 218.19 1489.06 220.25 1490.1C222.31 1491.15 228.72 1496.72 234.5 1502.5C240.27 1508.27 245 1513.67 245 1514.5C245 1515.32 246.23 1517.46 247.73 1519.25C249.23 1521.04 251.22 1524.97 252.15 1528C253.08 1531.02 254.86 1535.75 256.12 1538.5C258.19 1543.06 258.39 1544.96 258.39 1560C258.39 1575.04 258.19 1576.94 256.12 1581.5C254.86 1584.25 253.08 1588.97 252.15 1592C251.22 1595.02 249.23 1598.96 247.73 1600.75C246.23 1602.54 245 1604.45 245 1605C245 1605.55 242.72 1608.81 239.94 1612.25C237.16 1615.69 231.87 1620.87 228.19 1623.77C224.51 1626.67 221.16 1629.03 220.75 1629.02C220.34 1629.01 218.76 1630.09 217.25 1631.42C215.74 1632.75 211.8 1634.75 208.5 1635.86C205.2 1636.98 199.8 1638.86 196.5 1640.04C191.07 1641.99 188.99 1642.15 174.5 1641.77C159.3 1641.37 158.1 1641.19 150.5 1638.14C146.1 1636.37 141.15 1634.25 139.5 1633.42C137.85 1632.59 134.47 1630.71 132 1629.25C129.52 1627.78 123.34 1622.4 118.25 1617.29C113.16 1612.18 108.05 1606.09 106.88 1603.75C105.72 1601.41 104.17 1598.82 103.44 1598C102.71 1597.17 100.72 1592.45 99.02 1587.5C97.32 1582.55 95.51 1576.7 95.01 1574.5C94.5 1572.3 94.09 1565.77 94.09 1560C94.09 1554.22 94.5 1547.7 95.01 1545.5C95.51 1543.3 97.24 1537.67 98.84 1533C100.44 1528.32 102.95 1522.7 104.41 1520.5C105.87 1518.3 107.05 1515.94 107.03 1515.25C107.01 1514.56 112.17 1508.82 118.5 1502.5C124.82 1496.17 131.01 1490.72 132.25 1490.38C133.49 1490.05 135.85 1488.75 137.5 1487.5C139.15 1486.25 143.2 1484.45 146.5 1483.49C149.8 1482.53 153.85 1481.07 155.5 1480.25C157.15 1479.42 161.42 1478.39 165 1477.95C168.57 1477.51 176 1477.39 181.5 1477.67ZM622.5 1477.67C629.6 1478.04 634.09 1478.84 638 1480.43C641.02 1481.66 645.07 1482.96 647 1483.3C648.92 1483.65 652.19 1485.08 654.25 1486.47C656.31 1487.86 659.57 1489.67 661.5 1490.5C663.42 1491.32 669.72 1496.72 675.5 1502.5C681.27 1508.27 686 1513.67 686 1514.5C686 1515.32 687.23 1517.46 688.73 1519.25C690.23 1521.04 692.22 1524.97 693.15 1528C694.08 1531.02 695.86 1535.75 697.1 1538.5C699.16 1543.05 699.36 1545 699.36 1560C699.36 1575.01 699.16 1576.95 697.1 1581.5C695.85 1584.25 694 1589.2 692.99 1592.5C691.98 1595.8 690.38 1599.17 689.45 1600C688.52 1600.82 687.06 1602.85 686.21 1604.5C685.36 1606.15 682.65 1609.97 680.19 1613C677.73 1616.02 672.75 1620.87 669.11 1623.77C665.47 1626.67 662.16 1629.03 661.75 1629.02C661.34 1629.01 659.76 1630.09 658.25 1631.42C656.74 1632.75 652.8 1634.75 649.5 1635.86C646.2 1636.98 640.8 1638.86 637.5 1640.05C632.05 1642.01 629.99 1642.17 615 1641.8C601.44 1641.47 597.88 1641.07 595 1639.55C593.07 1638.54 589.02 1636.85 586 1635.8C582.97 1634.76 578.47 1632.59 576 1630.99C573.52 1629.39 569.02 1626.16 566 1623.81C562.97 1621.47 557.8 1616.43 554.5 1612.61C551.2 1608.8 548.13 1604.74 547.67 1603.59C547.21 1602.44 546.01 1600.37 544.99 1599C543.98 1597.62 541.75 1592.45 540.05 1587.5C538.34 1582.55 536.52 1576.92 536 1575C535.48 1573.07 535.05 1566.32 535.05 1560C535.05 1553.67 535.46 1546.92 535.97 1545C536.48 1543.07 537.87 1538.57 539.06 1535C540.26 1531.42 542.15 1526.7 543.27 1524.5C544.39 1522.3 546.24 1518.7 547.38 1516.5C548.52 1514.3 554.3 1507.66 560.22 1501.75C566.15 1495.84 572.01 1490.72 573.25 1490.38C574.49 1490.05 576.85 1488.75 578.5 1487.5C580.15 1486.25 584.2 1484.45 587.5 1483.49C590.8 1482.53 594.85 1481.07 596.5 1480.25C598.15 1479.42 602.42 1478.39 606 1477.95C609.57 1477.51 617 1477.39 622.5 1477.67ZM62 1487C64.76 1487 65 1487.28 65 1490.5C65 1493.78 65.2 1494 68.25 1493.99C70.04 1493.98 73.86 1494.66 76.75 1495.49C79.98 1496.42 81.86 1497.48 81.64 1498.25C81.44 1498.94 80.66 1501.19 79.89 1503.26C79.13 1505.33 78.05 1507.03 77.5 1507.03C76.95 1507.03 75.15 1506.61 73.5 1506.1C71.85 1505.59 69.26 1504.9 65 1504L65 1516L71.72 1519.25C76.27 1521.45 79.19 1523.63 80.75 1526C82.02 1527.92 83.04 1530.96 83.03 1532.75C83.01 1534.54 82.21 1537.63 81.25 1539.62C80.29 1541.61 78.15 1544.06 76.5 1545.06C74.85 1546.07 71.7 1547.27 69.5 1547.74C65.66 1548.55 65.49 1548.75 65.25 1552.79C65.01 1556.75 64.82 1557 62 1557C59.2 1557 59 1556.75 59.03 1549.5L52.77 1548.34C49.32 1547.71 45.26 1546.69 43.75 1546.09C41.22 1545.09 41 1544.57 41 1539.5C41 1536.47 41.11 1534 41.25 1534C41.39 1534 43.75 1534.84 46.5 1535.86C49.25 1536.89 53.19 1538.01 59 1539L58.97 1526.5L52.34 1523C48.7 1521.07 44.85 1518.37 43.8 1517C42.74 1515.62 41.66 1512.47 41.38 1510C41 1506.49 41.37 1504.78 43.06 1502.24C44.25 1500.45 46.64 1498.1 48.36 1497.02C50.09 1495.94 53.19 1494.82 55.25 1494.53C58.77 1494.03 59 1493.78 59 1490.5C59 1487.28 59.24 1487 62 1487ZM56.11 1505.46C54.8 1506.37 53.79 1507.99 53.87 1509.06C53.94 1510.13 54.9 1511.45 56 1512C57.1 1512.55 58.23 1512.89 58.52 1512.75C58.8 1512.61 58.92 1510.54 58.77 1508.16L58.49 1503.81L56.11 1505.46ZM66.3 1538C67.01 1538 68.15 1537.44 68.82 1536.75C69.49 1536.06 70.04 1534.82 70.05 1534C70.06 1533.17 69.26 1531.72 68.28 1530.78C67.3 1529.83 66.16 1529.04 65.75 1529.03C65.34 1529.01 65 1531.02 65 1533.5C65 1536.53 65.43 1538 66.3 1538ZM400 1560.41C409.8 1560.65 413.47 1561.15 417 1562.7C419.47 1563.8 424.2 1565.48 427.5 1566.45C430.8 1567.42 434.74 1569.29 436.25 1570.61C437.76 1571.92 439.67 1573 440.5 1573C441.32 1573 445.26 1575.88 449.25 1579.39C453.24 1582.91 458.43 1588.19 460.8 1591.14C463.16 1594.09 466.43 1598.52 468.05 1601C469.68 1603.47 471.74 1607.97 472.63 1611C473.52 1614.02 475.18 1618.3 476.31 1620.5C478.07 1623.91 478.43 1626.78 478.75 1640C479.03 1651.68 478.76 1656.73 477.64 1660.5C476.83 1663.25 474.89 1668.92 473.33 1673.1C471.77 1677.28 469.82 1681.51 469 1682.5C468.17 1683.48 466.6 1685.73 465.5 1687.5C464.4 1689.27 461.92 1692.84 460 1695.43C458.07 1698.03 453.57 1702.51 450 1705.39C446.42 1708.27 442.38 1711.22 441 1711.94C439.63 1712.66 437.6 1714.05 436.5 1715.03C435.4 1716.01 432.02 1717.54 429 1718.43C425.97 1719.32 421.47 1721.05 419 1722.28C414.87 1724.32 413.07 1724.5 397 1724.5C380.74 1724.5 379.15 1724.33 374.5 1722.16C371.75 1720.87 367.47 1719.21 365 1718.46C362.52 1717.72 359.38 1716.25 358 1715.2C356.63 1714.15 353.92 1712.47 352 1711.48C350.07 1710.48 347.22 1708.5 345.66 1707.08C344.09 1705.66 340.94 1702.67 338.66 1700.44C336.37 1698.2 333.01 1694.38 331.19 1691.94C329.37 1689.5 326.34 1685.02 324.47 1682C322.59 1678.97 320.78 1674.92 320.44 1673C320.09 1671.07 318.65 1666.8 317.23 1663.5C314.84 1657.95 314.65 1656.4 314.66 1643C314.68 1631.7 315.06 1627.51 316.41 1624C317.36 1621.52 319.01 1616.8 320.07 1613.5C321.14 1610.2 323.07 1605.92 324.36 1604C325.65 1602.07 326.99 1599.49 327.35 1598.25C327.71 1597.01 332.72 1591.27 338.5 1585.5C344.27 1579.72 350.91 1574.03 353.25 1572.85C355.59 1571.67 358.63 1569.88 360 1568.88C361.38 1567.89 364.64 1566.6 367.25 1566.03C369.86 1565.47 373.46 1564.26 375.25 1563.37C377.04 1562.47 380.52 1561.36 383 1560.92C385.47 1560.47 393.13 1560.24 400 1560.41ZM179.75 1656.56C193.46 1656.93 197.13 1657.38 203.25 1659.41C207.24 1660.73 212.97 1662.37 216 1663.06C219.02 1663.75 223.07 1665.34 225 1666.6C226.92 1667.85 229.85 1669.18 231.5 1669.56C233.15 1669.93 236.07 1671.46 238 1672.95C239.92 1674.45 242.63 1676.28 244 1677.02C245.38 1677.76 248.97 1680.25 252 1682.55C255.02 1684.86 260.15 1689.39 263.38 1692.62C266.61 1695.85 271.22 1701.09 273.63 1704.25C276.03 1707.41 278.74 1711.46 279.64 1713.25C280.54 1715.04 282.34 1717.74 283.64 1719.25C284.94 1720.76 286 1722.56 286 1723.25C286 1723.94 287.58 1727.65 289.49 1731.5C291.41 1735.35 293.26 1740.75 293.6 1743.5C293.95 1746.25 293.87 1749.62 293.43 1751C292.99 1752.37 289.89 1756.42 286.53 1760C283.18 1763.57 279.1 1768.25 277.47 1770.39C275.84 1772.53 273.26 1775.9 271.75 1777.89C270.24 1779.88 267.81 1783.97 266.36 1787C264.91 1790.02 262.93 1793.4 261.96 1794.5C260.98 1795.6 259.45 1798.97 258.55 1802C257.65 1805.02 256.08 1808.85 255.06 1810.5C254.03 1812.15 252.26 1818 251.12 1823.5C249.98 1829 248.36 1835.97 247.52 1839C246.68 1842.02 246.01 1846.3 246.03 1848.5C246.05 1851.34 245.44 1853.08 243.91 1854.5C242.53 1855.78 237.93 1857.31 231.13 1858.76C223.19 1860.44 214.3 1861.29 196 1862.1C178.33 1862.88 165.65 1862.88 150.5 1862.09C138.95 1861.49 126.57 1860.3 123 1859.45C119.42 1858.59 111.77 1857.23 106 1856.42C100.22 1855.62 94.6 1854.7 93.5 1854.39C92.4 1854.07 88.69 1852.73 85.25 1851.41C81.81 1850.08 78.21 1849 77.25 1849.01C76.29 1849.01 73.7 1848.06 71.5 1846.89C69.3 1845.72 65.7 1843.85 63.5 1842.73C61.3 1841.61 58.26 1839.42 56.75 1837.85C55.24 1836.28 54 1834.1 54 1833C54 1831.9 53.55 1830.77 53 1830.5C52.37 1830.18 52 1818.83 52 1799.5C52 1780.17 52.37 1768.82 53 1768.5C53.55 1768.22 54 1764.62 54 1760.5C54 1755.7 54.52 1752.19 55.43 1750.75C56.22 1749.51 57.57 1745.46 58.43 1741.75C59.29 1738.04 61.07 1733.09 62.39 1730.75C63.7 1728.41 65.25 1724.92 65.84 1723C66.42 1721.07 67.65 1718.82 68.57 1718C69.49 1717.17 71.16 1714.7 72.27 1712.5C73.39 1710.3 75.7 1706.76 77.4 1704.64C79.1 1702.51 84.17 1697.11 88.66 1692.64C93.15 1688.16 98.55 1683.11 100.66 1681.4C102.77 1679.7 106.07 1677.5 108 1676.51C109.92 1675.53 112.76 1673.66 114.29 1672.36C115.82 1671.06 117.62 1670.01 118.29 1670.01C118.96 1670.02 122.65 1668.45 126.5 1666.52C130.35 1664.59 134.29 1663 135.25 1663C136.21 1663 140.49 1661.82 144.75 1660.38C149.01 1658.94 154.97 1657.39 158 1656.94C161.02 1656.48 170.81 1656.31 179.75 1656.56ZM623 1656.51C635.93 1656.83 638.5 1657.21 646.75 1659.94C651.84 1661.62 656.79 1662.99 657.75 1662.98C658.71 1662.96 662.54 1664.54 666.25 1666.48C669.96 1668.41 673.67 1670 674.5 1670C675.32 1670 677.45 1671.24 679.22 1672.75C680.99 1674.26 683.82 1676.17 685.51 1677C687.2 1677.82 690.26 1679.85 692.3 1681.5C694.34 1683.15 699.72 1688.2 704.26 1692.72C708.79 1697.25 713.85 1702.63 715.5 1704.68C717.15 1706.74 719.17 1709.8 720 1711.49C720.82 1713.18 722.74 1716.01 724.25 1717.78C725.76 1719.55 727 1721.67 727 1722.5C727 1723.32 728.59 1727.04 730.52 1730.75C732.46 1734.46 734.04 1738.17 734.03 1739C734.02 1739.82 734.8 1743.1 735.76 1746.28C736.72 1749.46 738.06 1752.04 738.75 1752.03C739.65 1752.01 740 1754.35 740 1760.5C740 1765.17 740.45 1769.22 741 1769.5C741.63 1769.82 742 1781 742 1800C742 1819 741.63 1830.18 741 1830.5C740.45 1830.77 740 1832.12 740 1833.5C740 1835.06 739.43 1836 738.5 1836C737.67 1836 736.37 1837.01 735.59 1838.25C734.82 1839.49 732.68 1841.15 730.84 1841.94C729 1842.73 725.92 1844.4 724 1845.65C722.07 1846.9 718.02 1848.45 715 1849.08C711.97 1849.72 707.81 1851.09 705.75 1852.12C703.69 1853.16 698.74 1854.49 694.75 1855.09C690.76 1855.69 681.65 1857.3 674.5 1858.67C666.89 1860.12 654.45 1861.55 644.5 1862.11C635.15 1862.64 616.47 1862.79 603 1862.45C589.52 1862.11 576.02 1861.44 573 1860.96C569.97 1860.48 563.9 1859.34 559.5 1858.42C555.1 1857.51 550.73 1856.03 549.78 1855.13C548.6 1854.01 547.87 1851.15 547.43 1846C547.08 1841.87 545.75 1835.12 544.48 1831C543.2 1826.87 541.64 1820.8 541.01 1817.5C540.37 1814.2 539.04 1810.37 538.05 1809C537.06 1807.62 535.54 1804.02 534.67 1801C533.81 1797.97 532.34 1794.82 531.42 1794C530.49 1793.17 528.67 1790.25 527.36 1787.5C526.06 1784.75 523.89 1780.92 522.54 1779C521.19 1777.07 518.16 1773.06 515.8 1770.08C513.43 1767.1 508.69 1761.59 505.25 1757.83C500.25 1752.36 499 1750.35 499.02 1747.75C499.02 1745.96 499.69 1741.8 500.5 1738.5C501.3 1735.2 502.57 1731.82 503.32 1731C504.08 1730.17 505.48 1727.47 506.46 1725C507.43 1722.52 509.29 1719.15 510.58 1717.5C511.88 1715.85 512.97 1714.05 513.01 1713.5C513.05 1712.95 515.47 1709.35 518.4 1705.5C521.33 1701.65 526.38 1695.85 529.61 1692.62C532.85 1689.39 537.97 1684.86 541 1682.55C544.02 1680.25 547.63 1677.76 549 1677.02C550.38 1676.28 553.07 1674.45 555 1672.95C556.92 1671.46 559.85 1669.93 561.5 1669.56C563.15 1669.18 566.07 1667.84 568 1666.58C569.92 1665.32 574.65 1663.57 578.5 1662.69C582.35 1661.82 587.3 1660.34 589.5 1659.42C591.7 1658.5 596.88 1657.38 601 1656.94C605.13 1656.5 615.02 1656.3 623 1656.51ZM400.5 1739.44C413.56 1739.7 417.6 1740.15 422.5 1741.86C425.8 1743.01 431.65 1744.68 435.5 1745.57C439.35 1746.46 443.63 1747.98 445 1748.95C446.38 1749.93 449.3 1751.3 451.5 1752.01C453.7 1752.71 456.63 1754.24 458 1755.41C459.38 1756.57 462.64 1758.53 465.25 1759.76C467.86 1760.99 469.98 1762.34 469.96 1762.75C469.94 1763.16 471.62 1764.67 473.71 1766.1C475.79 1767.52 480.65 1771.87 484.5 1775.76C488.35 1779.65 492.89 1784.56 494.6 1786.67C496.3 1788.78 498.67 1792.41 499.85 1794.75C501.03 1797.09 502.45 1799.22 503 1799.5C503.55 1799.77 506 1804.16 508.45 1809.25C510.9 1814.34 513.38 1820.64 513.95 1823.25C514.53 1825.86 515.93 1830.36 517.07 1833.25C518.27 1836.28 519.52 1842.74 520.04 1848.5C520.53 1854 520.95 1870.2 520.97 1884.5C520.99 1899.35 520.56 1912 519.98 1914C519.42 1915.92 517.73 1918.78 516.23 1920.34C514.73 1921.9 511.7 1924.09 509.5 1925.21C507.3 1926.32 504.82 1927.83 504 1928.56C503.17 1929.29 499.57 1930.64 496 1931.56C492.42 1932.48 487.81 1934.08 485.75 1935.12C483.69 1936.15 477.39 1937.68 471.75 1938.52C466.11 1939.35 457.45 1940.97 452.5 1942.1C445.7 1943.66 437.76 1944.38 420 1945.03C406.62 1945.51 386.6 1945.5 373.5 1944.99C360.85 1944.5 348.02 1943.6 345 1943C341.97 1942.39 339.27 1941.72 339 1941.5C338.72 1941.28 332.54 1940.18 325.25 1939.05C317.96 1937.92 310.31 1936.16 308.25 1935.14C306.19 1934.11 302.02 1932.71 299 1932.03C295.97 1931.35 291.92 1929.78 290 1928.55C288.07 1927.32 284.92 1925.55 283 1924.6C281.07 1923.66 278.04 1921.11 273 1915L273.02 1881.75C273.04 1856.39 273.38 1847.08 274.48 1842.5C275.26 1839.2 276.99 1832.45 278.31 1827.5C279.63 1822.55 281.9 1816.25 283.36 1813.5C284.82 1810.75 286.69 1806.92 287.52 1805C288.34 1803.07 290.13 1799.92 291.5 1798C292.86 1796.07 295.44 1792.32 297.24 1789.65C299.03 1786.98 304.37 1780.9 309.1 1776.15C313.84 1771.39 320.14 1765.76 323.1 1763.63C326.07 1761.5 329.63 1759.19 331 1758.5C332.38 1757.81 334.17 1756.49 335 1755.57C335.82 1754.65 338.75 1753.18 341.5 1752.29C344.25 1751.4 347.63 1749.86 349 1748.87C350.38 1747.87 355.44 1746.14 360.25 1745.03C365.06 1743.91 369.9 1742.55 371 1742C372.1 1741.45 375.59 1740.57 378.75 1740.06C381.91 1739.54 391.7 1739.26 400.5 1739.44Z" />
</svg>