<?xml version="1.0" encoding="utf-8"?>
<svg viewBox="288.517 142.723 119.284 29.146" xmlns="http://www.w3.org/2000/svg">
  <path d="M 312.184 171.549 L 308.724 171.549 L 308.724 158.676 C 308.678 158.697 308.577 158.755 308.477 158.819 C 308.356 158.896 308.241 158.97 308.222 158.985 C 308.204 158.998 308.183 159.009 308.175 159.009 C 308.167 159.009 308.096 159.045 308.016 159.09 C 307.936 159.132 307.736 159.23 307.57 159.304 C 307.405 159.381 307.23 159.457 307.186 159.476 C 307.139 159.493 307.042 159.532 306.966 159.559 C 306.89 159.587 306.779 159.627 306.718 159.647 C 306.659 159.668 306.49 159.72 306.347 159.762 C 306.204 159.806 306.012 159.86 305.923 159.883 C 305.83 159.904 305.675 159.938 305.579 159.958 C 305.48 159.978 305.246 160.021 305.056 160.054 C 304.868 160.087 304.546 160.133 304.342 160.154 C 304.137 160.177 303.816 160.2 303.627 160.207 C 303.438 160.214 303.17 160.226 302.776 160.246 L 302.776 164.003 L 302.778 164.003 L 302.778 171.533 L 297.917 171.533 L 297.917 164.003 L 297.94 164.003 L 297.94 160.258 L 297.7 160.24 C 297.568 160.23 297.279 160.216 297.061 160.207 C 296.841 160.2 296.52 160.177 296.346 160.157 C 296.173 160.135 295.888 160.095 295.714 160.066 C 295.541 160.039 295.318 159.997 295.22 159.977 C 295.123 159.956 294.967 159.922 294.875 159.901 C 294.785 159.879 294.642 159.841 294.56 159.818 C 294.477 159.793 294.335 159.754 294.244 159.728 C 294.154 159.703 294.042 159.668 293.996 159.651 C 293.953 159.634 293.846 159.595 293.763 159.564 C 293.68 159.535 293.576 159.493 293.53 159.476 C 293.485 159.457 293.306 159.38 293.131 159.302 C 292.957 159.223 292.697 159.097 292.553 159.021 C 292.411 158.943 292.29 158.87 292.287 158.857 C 292.282 158.844 292.268 158.833 292.252 158.833 C 292.238 158.833 292.137 158.776 292.033 158.707 C 291.927 158.638 291.815 158.561 291.781 158.536 C 291.751 158.512 291.694 158.47 291.66 158.442 C 291.624 158.414 291.554 158.364 291.505 158.329 C 291.456 158.295 291.271 158.135 291.098 157.973 C 290.925 157.814 290.75 157.647 290.711 157.607 C 290.671 157.567 290.58 157.465 290.507 157.383 C 290.433 157.299 290.363 157.228 290.351 157.225 C 290.339 157.221 290.328 157.207 290.328 157.194 C 290.328 157.179 290.271 157.091 290.196 156.998 C 290.124 156.905 290.029 156.773 289.984 156.705 C 289.941 156.638 289.883 156.553 289.857 156.516 C 289.831 156.48 289.792 156.42 289.771 156.387 C 289.751 156.351 289.677 156.22 289.608 156.096 C 289.541 155.97 289.448 155.795 289.404 155.704 C 289.358 155.615 289.301 155.492 289.277 155.433 C 289.251 155.375 289.214 155.283 289.192 155.232 C 289.171 155.179 289.129 155.074 289.099 154.999 C 289.067 154.922 289.021 154.791 288.995 154.708 C 288.968 154.624 288.925 154.489 288.899 154.405 C 288.872 154.322 288.831 154.181 288.809 154.09 C 288.786 154.001 288.748 153.835 288.724 153.725 C 288.701 153.613 288.662 153.409 288.639 153.271 C 288.615 153.131 288.577 152.809 288.555 152.552 C 288.533 152.294 288.517 151.914 288.517 151.705 C 288.516 151.499 288.529 151.168 288.544 150.975 C 288.56 150.78 288.597 150.462 288.629 150.268 C 288.659 150.074 288.701 149.835 288.724 149.738 C 288.746 149.642 288.783 149.477 288.807 149.373 C 288.829 149.269 288.872 149.11 288.899 149.02 C 288.928 148.929 288.972 148.782 288.997 148.691 C 289.023 148.602 289.064 148.483 289.086 148.426 C 289.107 148.371 289.138 148.291 289.15 148.251 C 289.163 148.208 289.208 148.084 289.249 147.972 C 289.293 147.862 289.335 147.759 289.344 147.745 C 289.353 147.731 289.394 147.641 289.435 147.543 C 289.474 147.447 289.524 147.333 289.545 147.292 C 289.565 147.25 289.677 147.039 289.792 146.825 C 289.908 146.609 290.03 146.391 290.063 146.34 C 290.095 146.288 290.158 146.185 290.201 146.113 C 290.247 146.04 290.317 145.931 290.361 145.872 C 290.403 145.813 290.439 145.76 290.439 145.752 C 290.439 145.746 290.457 145.72 290.477 145.695 C 290.5 145.671 290.558 145.601 290.608 145.538 C 290.66 145.477 290.762 145.345 290.838 145.248 C 290.913 145.152 290.993 145.054 291.017 145.034 C 291.041 145.013 291.114 144.933 291.181 144.857 C 291.246 144.78 291.421 144.612 291.563 144.478 C 291.709 144.347 291.958 144.145 292.114 144.028 C 292.273 143.913 292.425 143.802 292.451 143.783 C 292.478 143.763 292.513 143.747 292.527 143.747 C 292.542 143.747 292.558 143.738 292.561 143.727 C 292.565 143.717 292.685 143.644 292.83 143.566 C 292.973 143.489 293.191 143.382 293.309 143.331 C 293.431 143.279 293.555 143.227 293.585 143.215 C 293.614 143.202 293.671 143.182 293.709 143.168 C 293.762 143.15 293.79 143.154 293.832 143.188 C 293.863 143.212 293.986 143.304 294.106 143.392 C 294.227 143.483 294.333 143.562 294.341 143.569 C 294.348 143.578 294.41 143.624 294.478 143.672 C 294.545 143.72 294.631 143.783 294.668 143.81 C 294.704 143.837 294.778 143.894 294.833 143.938 C 294.887 143.978 294.987 144.054 295.054 144.104 C 295.124 144.154 295.209 144.22 295.248 144.249 C 295.284 144.277 295.33 144.311 295.344 144.32 C 295.359 144.332 295.471 144.413 295.59 144.503 C 295.711 144.593 295.816 144.673 295.824 144.68 C 295.831 144.688 295.894 144.733 295.961 144.781 C 296.03 144.829 296.099 144.881 296.116 144.895 C 296.132 144.909 296.239 144.988 296.564 145.223 L 296.566 145.625 L 296.425 145.702 C 296.349 145.743 296.265 145.789 296.239 145.802 C 296.216 145.818 296.158 145.852 296.112 145.878 C 296.067 145.904 295.955 145.977 295.865 146.04 C 295.775 146.102 295.66 146.187 295.608 146.23 C 295.557 146.273 295.45 146.365 295.374 146.436 C 295.296 146.507 295.191 146.609 295.14 146.663 C 295.089 146.717 294.982 146.841 294.902 146.939 C 294.821 147.036 294.707 147.189 294.646 147.279 C 294.584 147.369 294.459 147.585 294.367 147.758 C 294.274 147.931 294.188 148.097 294.174 148.124 C 294.161 148.151 294.096 148.327 294.028 148.514 C 293.961 148.701 293.88 148.952 293.851 149.07 C 293.819 149.188 293.771 149.403 293.739 149.549 C 293.709 149.694 293.671 149.888 293.652 149.979 C 293.637 150.068 293.612 150.341 293.595 150.583 C 293.577 150.84 293.572 151.331 293.58 151.757 C 293.588 152.2 293.613 152.607 293.639 152.79 C 293.663 152.957 293.709 153.208 293.739 153.346 C 293.771 153.484 293.827 153.712 293.864 153.851 C 293.901 153.989 293.942 154.137 293.954 154.178 C 293.965 154.22 293.994 154.29 294.019 154.335 C 294.044 154.381 294.065 154.43 294.065 154.443 C 294.065 154.458 294.085 154.511 294.11 154.564 C 294.133 154.615 294.21 154.765 294.282 154.897 C 294.35 155.028 294.477 155.23 294.56 155.341 C 294.642 155.454 294.768 155.606 294.834 155.68 C 294.903 155.753 294.989 155.838 295.025 155.866 C 295.062 155.896 295.139 155.959 295.196 156.008 C 295.254 156.055 295.317 156.107 295.336 156.121 C 295.355 156.134 295.415 156.177 295.467 156.212 C 295.519 156.247 295.582 156.284 295.603 156.293 C 295.628 156.304 295.682 156.332 295.728 156.359 C 295.774 156.387 295.867 156.434 295.933 156.465 C 296.003 156.495 296.102 156.535 296.154 156.555 C 296.207 156.574 296.324 156.611 296.414 156.637 C 296.506 156.662 296.684 156.706 296.813 156.734 C 296.943 156.763 297.158 156.799 297.293 156.813 C 297.429 156.827 297.634 156.839 297.953 156.84 L 297.976 154.045 C 297.988 152.509 298.008 150.945 298.021 150.57 C 298.034 150.196 298.059 149.731 298.076 149.537 C 298.093 149.342 298.132 148.996 298.161 148.767 C 298.192 148.537 298.235 148.243 298.259 148.111 C 298.282 147.98 298.326 147.758 298.358 147.62 C 298.389 147.481 298.452 147.225 298.497 147.051 C 298.54 146.878 298.619 146.617 298.672 146.472 C 298.723 146.325 298.784 146.17 298.806 146.125 C 298.829 146.079 298.846 146.034 298.846 146.023 C 298.846 146.013 298.871 145.959 298.899 145.904 C 298.929 145.847 298.973 145.758 298.997 145.702 C 299.022 145.647 299.056 145.578 299.073 145.551 C 299.089 145.524 299.139 145.438 299.183 145.362 C 299.225 145.285 299.276 145.201 299.294 145.173 C 299.314 145.145 299.389 145.038 299.464 144.933 C 299.538 144.829 299.668 144.663 299.75 144.567 C 299.834 144.469 299.932 144.358 299.971 144.316 C 300.011 144.277 300.08 144.209 300.128 144.165 C 300.174 144.123 300.249 144.059 300.293 144.024 C 300.335 143.989 300.44 143.91 300.524 143.848 C 300.608 143.785 300.744 143.694 300.826 143.647 C 300.908 143.599 300.982 143.552 300.99 143.542 C 300.997 143.531 301.158 143.455 301.347 143.369 C 301.535 143.284 301.712 143.203 301.738 143.19 C 301.764 143.177 301.799 143.167 301.813 143.167 C 301.828 143.167 301.893 143.146 301.958 143.121 C 302.022 143.095 302.142 143.055 302.225 143.033 C 302.31 143.01 302.446 142.974 302.529 142.954 C 302.612 142.933 302.79 142.894 302.925 142.867 C 303.061 142.84 303.279 142.803 303.407 142.786 C 303.535 142.769 303.783 142.747 303.957 142.736 C 304.131 142.725 304.514 142.721 304.809 142.725 C 305.148 142.731 305.437 142.749 305.591 142.774 C 305.726 142.797 305.931 142.84 306.045 142.867 C 306.159 142.896 306.338 142.944 306.444 142.972 C 306.55 143.002 306.653 143.033 306.677 143.043 C 306.7 143.053 306.835 143.108 306.98 143.163 C 307.123 143.22 307.314 143.3 307.405 143.345 C 307.495 143.389 307.627 143.455 307.693 143.489 C 307.762 143.524 307.842 143.566 307.872 143.58 C 307.902 143.596 308 143.654 308.09 143.709 C 308.178 143.765 308.296 143.84 308.35 143.873 C 308.407 143.908 308.539 143.998 308.642 144.074 C 308.748 144.15 308.87 144.241 308.913 144.276 C 308.956 144.312 309.016 144.359 309.044 144.384 C 309.072 144.408 309.101 144.429 309.109 144.429 C 309.117 144.429 309.226 144.527 309.353 144.649 C 309.481 144.77 309.618 144.904 309.659 144.944 C 309.701 144.987 309.802 145.1 309.887 145.198 C 309.972 145.295 310.049 145.38 310.057 145.387 C 310.067 145.393 310.138 145.479 310.214 145.576 C 310.287 145.673 310.395 145.812 310.45 145.884 C 310.507 145.958 310.551 146.023 310.551 146.03 C 310.551 146.036 310.587 146.093 310.634 146.157 C 310.679 146.218 310.716 146.276 310.716 146.282 C 310.716 146.289 310.739 146.325 310.767 146.363 C 310.795 146.402 310.894 146.57 310.986 146.736 C 311.076 146.904 311.198 147.13 311.254 147.24 C 311.311 147.352 311.365 147.471 311.378 147.506 C 311.39 147.541 311.426 147.631 311.458 147.708 C 311.49 147.784 311.546 147.926 311.58 148.023 C 311.614 148.121 311.664 148.267 311.692 148.351 C 311.718 148.433 311.756 148.554 311.776 148.615 C 311.796 148.678 311.839 148.837 311.871 148.968 C 311.903 149.102 311.952 149.305 311.979 149.423 C 312.008 149.541 312.049 149.768 312.074 149.927 C 312.097 150.087 312.132 150.37 312.15 150.558 C 312.17 150.753 312.184 151.227 312.184 151.669 C 312.184 151.834 312.182 151.979 312.18 152.109 L 312.184 152.109 L 312.184 160.209 C 312.637 159.469 313.244 158.889 314.004 158.469 C 314.771 158.042 315.651 157.829 316.644 157.829 C 318.297 157.829 319.577 158.352 320.484 159.399 C 321.397 160.446 321.854 161.976 321.854 163.989 L 321.854 171.549 L 318.424 171.549 L 318.424 164.309 C 318.424 163.162 318.194 162.282 317.734 161.669 C 317.274 161.056 316.551 160.749 315.564 160.749 C 314.591 160.749 313.784 161.092 313.144 161.779 C 312.504 162.459 312.184 163.412 312.184 164.639 Z M 327.01 156.079 C 326.376 156.079 325.86 155.889 325.46 155.509 C 325.053 155.129 324.85 154.652 324.85 154.079 C 324.85 153.506 325.053 153.032 325.46 152.659 C 325.86 152.292 326.376 152.109 327.01 152.109 C 327.636 152.109 328.153 152.292 328.56 152.659 C 328.966 153.032 329.17 153.506 329.17 154.079 C 329.17 154.652 328.966 155.129 328.56 155.509 C 328.153 155.889 327.636 156.079 327.01 156.079 Z M 328.74 171.549 L 325.28 171.549 L 325.28 158.159 L 328.74 158.159 Z M 336.448 171.549 L 332.978 171.549 L 332.978 161.009 L 331.138 161.009 L 331.138 158.109 L 332.978 158.109 L 332.978 156.539 C 332.978 154.912 333.392 153.756 334.218 153.069 C 335.038 152.382 336.152 152.039 337.558 152.039 L 339.058 152.039 L 339.058 154.989 L 338.108 154.989 C 337.508 154.989 337.082 155.106 336.828 155.339 C 336.575 155.579 336.448 155.979 336.448 156.539 L 336.448 158.109 L 339.348 158.109 L 339.348 161.009 L 336.448 161.009 Z M 343.947 156.079 C 343.314 156.079 342.797 155.889 342.397 155.509 C 341.991 155.129 341.787 154.652 341.787 154.079 C 341.787 153.506 341.991 153.032 342.397 152.659 C 342.797 152.292 343.314 152.109 343.947 152.109 C 344.574 152.109 345.091 152.292 345.497 152.659 C 345.904 153.032 346.107 153.506 346.107 154.079 C 346.107 154.652 345.904 155.129 345.497 155.509 C 345.091 155.889 344.574 156.079 343.947 156.079 Z M 345.677 171.549 L 342.217 171.549 L 342.217 158.159 L 345.677 158.159 Z M 352.746 171.549 L 349.286 171.549 L 349.286 158.159 L 352.346 158.159 L 352.616 160.429 C 353.029 159.636 353.626 159.006 354.406 158.539 C 355.193 158.066 356.116 157.829 357.176 157.829 C 358.829 157.829 360.116 158.352 361.036 159.399 C 361.956 160.446 362.416 161.976 362.416 163.989 L 362.416 171.549 L 358.956 171.549 L 358.956 164.309 C 358.956 163.162 358.723 162.282 358.256 161.669 C 357.789 161.056 357.059 160.749 356.066 160.749 C 355.093 160.749 354.296 161.092 353.676 161.779 C 353.056 162.459 352.746 163.412 352.746 164.639 Z M 371.862 171.869 C 370.602 171.869 369.478 171.566 368.492 170.959 C 367.498 170.346 366.715 169.509 366.142 168.449 C 365.562 167.382 365.272 166.176 365.272 164.829 C 365.272 163.476 365.562 162.272 366.142 161.219 C 366.715 160.166 367.498 159.339 368.492 158.739 C 369.478 158.132 370.602 157.829 371.862 157.829 C 372.868 157.829 373.752 158.019 374.512 158.399 C 375.265 158.779 375.875 159.309 376.342 159.989 L 376.342 152.109 L 379.802 152.109 L 379.802 171.549 L 376.722 171.549 L 376.342 169.629 C 375.908 170.222 375.338 170.746 374.632 171.199 C 373.918 171.646 372.995 171.869 371.862 171.869 Z M 372.592 168.849 C 373.705 168.849 374.618 168.476 375.332 167.729 C 376.045 166.982 376.402 166.022 376.402 164.849 C 376.402 163.682 376.045 162.726 375.332 161.979 C 374.618 161.232 373.705 160.859 372.592 160.859 C 371.492 160.859 370.582 161.229 369.862 161.969 C 369.142 162.702 368.782 163.656 368.782 164.829 C 368.782 165.996 369.142 166.959 369.862 167.719 C 370.582 168.472 371.492 168.849 372.592 168.849 Z M 389.815 171.869 C 388.469 171.869 387.272 171.582 386.225 171.009 C 385.179 170.436 384.359 169.626 383.765 168.579 C 383.172 167.532 382.875 166.326 382.875 164.959 C 382.875 163.572 383.169 162.339 383.755 161.259 C 384.342 160.179 385.152 159.339 386.185 158.739 C 387.219 158.132 388.439 157.829 389.845 157.829 C 391.159 157.829 392.319 158.119 393.325 158.699 C 394.332 159.272 395.119 160.059 395.685 161.059 C 396.252 162.059 396.535 163.169 396.535 164.389 C 396.535 164.589 396.532 164.799 396.525 165.019 C 396.519 165.232 396.505 165.456 396.485 165.689 L 386.305 165.689 C 386.379 166.736 386.745 167.556 387.405 168.149 C 388.059 168.742 388.852 169.039 389.785 169.039 C 390.492 169.039 391.082 168.882 391.555 168.569 C 392.035 168.249 392.392 167.839 392.625 167.339 L 396.135 167.339 C 395.882 168.186 395.462 168.956 394.875 169.649 C 394.295 170.342 393.575 170.886 392.715 171.279 C 391.862 171.672 390.895 171.869 389.815 171.869 Z M 389.845 160.639 C 388.999 160.639 388.252 160.879 387.605 161.359 C 386.959 161.832 386.545 162.556 386.365 163.529 L 393.025 163.529 C 392.972 162.649 392.649 161.946 392.055 161.419 C 391.462 160.899 390.725 160.639 389.845 160.639 Z M 402.911 171.549 L 399.451 171.549 L 399.451 158.159 L 402.531 158.159 L 402.861 160.669 C 403.348 159.802 404.008 159.112 404.841 158.599 C 405.681 158.086 406.668 157.829 407.801 157.829 L 407.801 161.479 L 406.831 161.479 C 406.071 161.479 405.394 161.596 404.801 161.829 C 404.208 162.062 403.744 162.466 403.411 163.039 C 403.078 163.619 402.911 164.422 402.911 165.449 Z M 304.067 146.239 C 303.94 146.296 303.835 146.37 303.695 146.501 C 303.591 146.603 303.488 146.709 303.471 146.736 C 303.452 146.764 303.388 146.878 303.329 146.989 C 303.268 147.1 303.202 147.235 303.179 147.292 C 303.157 147.348 303.12 147.46 303.095 147.543 C 303.071 147.626 303.032 147.775 303.008 147.872 C 302.982 147.968 302.945 148.156 302.922 148.288 C 302.9 148.419 302.871 148.641 302.858 148.779 C 302.844 148.919 302.814 149.236 302.79 149.485 C 302.756 149.864 302.75 150.523 302.75 153.39 L 302.747 156.84 C 303.078 156.839 303.311 156.822 303.477 156.802 C 303.643 156.781 303.89 156.735 304.026 156.699 C 304.161 156.664 304.311 156.626 304.356 156.616 C 304.4 156.605 304.463 156.585 304.494 156.57 C 304.523 156.555 304.622 156.511 304.713 156.472 C 304.804 156.434 304.94 156.367 305.014 156.325 C 305.089 156.285 305.229 156.195 305.325 156.129 C 305.418 156.062 305.596 155.913 305.719 155.799 C 305.841 155.685 305.998 155.517 306.066 155.428 C 306.134 155.337 306.243 155.184 306.305 155.086 C 306.368 154.989 306.446 154.855 306.481 154.783 C 306.515 154.715 306.565 154.613 306.593 154.557 C 306.623 154.5 306.682 154.348 306.729 154.216 C 306.775 154.085 306.837 153.897 306.866 153.799 C 306.895 153.703 306.937 153.538 306.96 153.435 C 306.984 153.33 307.021 153.127 307.044 152.98 C 307.067 152.835 307.101 152.556 307.122 152.362 C 307.143 152.154 307.157 151.678 307.153 151.201 C 307.152 150.758 307.137 150.133 307.121 149.813 C 307.102 149.495 307.069 149.086 307.045 148.906 C 307.023 148.725 306.986 148.476 306.963 148.351 C 306.941 148.227 306.895 148.022 306.865 147.898 C 306.832 147.772 306.784 147.605 306.756 147.525 C 306.729 147.446 306.665 147.297 306.616 147.198 C 306.566 147.096 306.481 146.952 306.424 146.875 C 306.367 146.799 306.244 146.664 306.147 146.577 C 306.053 146.488 305.909 146.38 305.826 146.336 C 305.742 146.292 305.612 146.238 305.537 146.211 C 305.462 146.186 305.282 146.149 305.138 146.128 C 304.996 146.109 304.817 146.094 304.741 146.096 C 304.665 146.098 304.522 146.113 304.425 146.129 C 304.326 146.147 304.166 146.196 304.067 146.239 Z" style="fill: rgb(255, 193, 7); white-space: pre;"/>
</svg>