<?xml version="1.0" encoding="utf-8"?>
<svg viewBox="293.788 173.369 114.014 26.954" xmlns="http://www.w3.org/2000/svg">
  <path d="M 312.184 200.003 L 308.724 200.003 L 308.724 180.563 L 312.184 180.563 L 312.184 188.663 C 312.637 187.923 313.244 187.343 314.004 186.923 C 314.771 186.496 315.651 186.283 316.644 186.283 C 318.297 186.283 319.577 186.806 320.484 187.853 C 321.397 188.9 321.854 190.43 321.854 192.443 L 321.854 200.003 L 318.424 200.003 L 318.424 192.763 C 318.424 191.616 318.194 190.736 317.734 190.123 C 317.274 189.51 316.551 189.203 315.564 189.203 C 314.591 189.203 313.784 189.546 313.144 190.233 C 312.504 190.913 312.184 191.866 312.184 193.093 L 312.184 200.003 Z M 327.01 184.533 C 326.376 184.533 325.86 184.343 325.46 183.963 C 325.053 183.583 324.85 183.106 324.85 182.533 C 324.85 181.96 325.053 181.486 325.46 181.113 C 325.86 180.746 326.376 180.563 327.01 180.563 C 327.636 180.563 328.153 180.746 328.56 181.113 C 328.966 181.486 329.17 181.96 329.17 182.533 C 329.17 183.106 328.966 183.583 328.56 183.963 C 328.153 184.343 327.636 184.533 327.01 184.533 Z M 328.74 200.003 L 325.28 200.003 L 325.28 186.613 L 328.74 186.613 L 328.74 200.003 Z M 336.449 200.003 L 332.979 200.003 L 332.979 189.463 L 331.139 189.463 L 331.139 186.563 L 332.979 186.563 L 332.979 184.993 C 332.979 183.366 333.392 182.21 334.219 181.523 C 335.039 180.836 336.152 180.493 337.559 180.493 L 339.059 180.493 L 339.059 183.443 L 338.109 183.443 C 337.509 183.443 337.082 183.56 336.829 183.793 C 336.575 184.033 336.449 184.433 336.449 184.993 L 336.449 186.563 L 339.349 186.563 L 339.349 189.463 L 336.449 189.463 L 336.449 200.003 Z M 343.947 184.533 C 343.314 184.533 342.797 184.343 342.397 183.963 C 341.991 183.583 341.787 183.106 341.787 182.533 C 341.787 181.96 341.991 181.486 342.397 181.113 C 342.797 180.746 343.314 180.563 343.947 180.563 C 344.574 180.563 345.091 180.746 345.497 181.113 C 345.904 181.486 346.107 181.96 346.107 182.533 C 346.107 183.106 345.904 183.583 345.497 183.963 C 345.091 184.343 344.574 184.533 343.947 184.533 Z M 345.677 200.003 L 342.217 200.003 L 342.217 186.613 L 345.677 186.613 L 345.677 200.003 Z M 352.746 200.003 L 349.286 200.003 L 349.286 186.613 L 352.346 186.613 L 352.616 188.883 C 353.03 188.09 353.626 187.46 354.406 186.993 C 355.193 186.52 356.116 186.283 357.176 186.283 C 358.83 186.283 360.116 186.806 361.036 187.853 C 361.956 188.9 362.416 190.43 362.416 192.443 L 362.416 200.003 L 358.956 200.003 L 358.956 192.763 C 358.956 191.616 358.723 190.736 358.256 190.123 C 357.79 189.51 357.06 189.203 356.066 189.203 C 355.093 189.203 354.296 189.546 353.676 190.233 C 353.056 190.913 352.746 191.866 352.746 193.093 L 352.746 200.003 Z M 371.862 200.323 C 370.602 200.323 369.479 200.02 368.492 199.413 C 367.499 198.8 366.716 197.963 366.142 196.903 C 365.562 195.836 365.272 194.63 365.272 193.283 C 365.272 191.93 365.562 190.726 366.142 189.673 C 366.716 188.62 367.499 187.793 368.492 187.193 C 369.479 186.586 370.602 186.283 371.862 186.283 C 372.869 186.283 373.752 186.473 374.512 186.853 C 375.266 187.233 375.876 187.763 376.342 188.443 L 376.342 180.563 L 379.802 180.563 L 379.802 200.003 L 376.722 200.003 L 376.342 198.083 C 375.909 198.676 375.339 199.2 374.632 199.653 C 373.919 200.1 372.996 200.323 371.862 200.323 Z M 372.592 197.303 C 373.706 197.303 374.619 196.93 375.332 196.183 C 376.046 195.436 376.402 194.476 376.402 193.303 C 376.402 192.136 376.046 191.18 375.332 190.433 C 374.619 189.686 373.706 189.313 372.592 189.313 C 371.492 189.313 370.582 189.683 369.862 190.423 C 369.142 191.156 368.782 192.11 368.782 193.283 C 368.782 194.45 369.142 195.413 369.862 196.173 C 370.582 196.926 371.492 197.303 372.592 197.303 Z M 389.816 200.323 C 388.469 200.323 387.273 200.036 386.226 199.463 C 385.179 198.89 384.359 198.08 383.766 197.033 C 383.173 195.986 382.876 194.78 382.876 193.413 C 382.876 192.026 383.169 190.793 383.756 189.713 C 384.343 188.633 385.153 187.793 386.186 187.193 C 387.219 186.586 388.439 186.283 389.846 186.283 C 391.159 186.283 392.319 186.573 393.326 187.153 C 394.333 187.726 395.119 188.513 395.686 189.513 C 396.253 190.513 396.536 191.623 396.536 192.843 C 396.536 193.043 396.533 193.253 396.526 193.473 C 396.519 193.686 396.506 193.91 396.486 194.143 L 386.306 194.143 C 386.379 195.19 386.746 196.01 387.406 196.603 C 388.059 197.196 388.853 197.493 389.786 197.493 C 390.493 197.493 391.083 197.336 391.556 197.023 C 392.036 196.703 392.393 196.293 392.626 195.793 L 396.136 195.793 C 395.883 196.64 395.463 197.41 394.876 198.103 C 394.296 198.796 393.576 199.34 392.716 199.733 C 391.863 200.126 390.896 200.323 389.816 200.323 Z M 389.846 189.093 C 388.999 189.093 388.253 189.333 387.606 189.813 C 386.959 190.286 386.546 191.01 386.366 191.983 L 393.026 191.983 C 392.973 191.103 392.649 190.4 392.056 189.873 C 391.463 189.353 390.726 189.093 389.846 189.093 Z M 402.912 200.003 L 399.452 200.003 L 399.452 186.613 L 402.532 186.613 L 402.862 189.123 C 403.349 188.256 404.009 187.566 404.842 187.053 C 405.682 186.54 406.669 186.283 407.802 186.283 L 407.802 189.933 L 406.832 189.933 C 406.072 189.933 405.395 190.05 404.802 190.283 C 404.209 190.516 403.745 190.92 403.412 191.493 C 403.079 192.073 402.912 192.876 402.912 193.903 L 402.912 200.003 Z M 301.122 193.011 L 304.885 193.011 L 304.885 200 L 301.122 200 L 301.122 193.011 Z M 306.461 173.371 C 306.725 173.376 306.949 173.391 307.07 173.412 C 307.175 173.432 307.334 173.468 307.422 173.491 C 307.511 173.516 307.65 173.556 307.733 173.58 C 307.815 173.605 307.896 173.632 307.914 173.64 C 307.932 173.649 308.037 173.695 308.15 173.742 C 308.261 173.79 308.41 173.858 308.48 173.896 C 308.551 173.933 308.653 173.989 308.705 174.018 C 308.758 174.048 308.82 174.083 308.844 174.095 C 308.867 174.109 308.943 174.158 309.013 174.204 C 309.082 174.252 309.173 174.315 309.216 174.343 C 309.26 174.373 309.362 174.449 309.443 174.514 C 309.525 174.578 309.62 174.655 309.654 174.685 C 309.687 174.715 309.733 174.755 309.755 174.776 C 309.777 174.797 309.799 174.814 309.806 174.814 C 309.812 174.814 309.897 174.897 309.996 175.001 C 310.095 175.103 310.202 175.217 310.234 175.251 C 310.266 175.287 310.345 175.383 310.411 175.466 C 310.477 175.548 310.537 175.62 310.543 175.626 C 310.551 175.631 310.606 175.704 310.665 175.786 C 310.722 175.868 310.806 175.986 310.849 176.047 C 310.893 176.11 310.928 176.165 310.928 176.171 C 310.928 176.176 310.956 176.224 310.992 176.278 C 311.027 176.33 311.056 176.379 311.056 176.384 C 311.056 176.39 311.074 176.421 311.096 176.453 C 311.118 176.486 311.195 176.628 311.266 176.769 C 311.336 176.911 311.431 177.103 311.474 177.196 C 311.518 177.291 311.561 177.392 311.571 177.421 C 311.58 177.451 311.608 177.527 311.633 177.592 C 311.658 177.657 311.701 177.777 311.728 177.859 C 311.755 177.942 311.794 178.066 311.815 178.137 C 311.835 178.207 311.865 178.309 311.88 178.361 C 311.896 178.414 311.929 178.549 311.955 178.66 C 311.979 178.773 312.017 178.945 312.039 179.045 C 312.061 179.145 312.093 179.338 312.112 179.472 C 312.13 179.608 312.157 179.848 312.172 180.007 C 312.187 180.172 312.198 180.574 312.198 180.948 C 312.197 181.412 312.187 181.692 312.162 181.92 C 312.142 182.096 312.115 182.307 312.103 182.39 C 312.091 182.473 312.061 182.627 312.037 182.732 C 312.014 182.838 311.979 182.987 311.962 183.064 C 311.944 183.139 311.91 183.265 311.888 183.342 C 311.865 183.417 311.813 183.581 311.772 183.704 C 311.732 183.828 311.666 184.016 311.622 184.121 C 311.58 184.227 311.493 184.42 311.43 184.549 C 311.366 184.678 311.275 184.853 311.227 184.939 C 311.181 185.025 311.107 185.143 311.067 185.2 C 311.026 185.259 310.992 185.313 310.992 185.318 C 310.992 185.324 310.965 185.365 310.933 185.41 C 310.9 185.453 310.867 185.492 310.858 185.494 C 310.849 185.497 310.843 185.51 310.843 185.521 C 310.843 185.533 310.788 185.613 310.722 185.698 C 310.657 185.783 310.595 185.856 310.583 185.858 C 310.573 185.861 310.565 185.876 310.563 185.89 C 310.563 185.904 310.541 185.937 310.516 185.962 C 310.49 185.987 310.382 186.096 310.276 186.205 C 310.17 186.314 310.023 186.457 309.947 186.523 C 309.873 186.59 309.8 186.654 309.787 186.666 C 309.774 186.678 309.717 186.721 309.66 186.762 C 309.605 186.802 309.559 186.843 309.559 186.852 C 309.56 186.861 309.543 186.872 309.522 186.878 C 309.502 186.883 309.408 186.941 309.314 187.006 C 309.22 187.071 309.131 187.134 309.116 187.146 C 309.102 187.157 309.085 187.167 309.079 187.167 C 309.073 187.167 309.018 187.197 308.956 187.235 C 308.894 187.271 308.738 187.354 308.609 187.417 C 308.48 187.482 308.344 187.546 308.31 187.562 C 308.274 187.577 308.198 187.61 308.139 187.633 C 308.08 187.656 307.993 187.69 307.946 187.707 C 307.9 187.725 307.769 187.769 307.658 187.805 C 307.546 187.842 307.397 187.888 307.327 187.907 C 307.255 187.925 307.135 187.954 307.06 187.971 C 306.983 187.988 306.801 188.024 306.653 188.052 C 306.507 188.08 306.256 188.119 306.098 188.137 C 305.939 188.156 305.689 188.176 305.541 188.182 C 305.395 188.188 305.186 188.198 304.88 188.215 L 304.88 193.686 L 301.118 193.686 L 301.118 188.225 L 300.931 188.21 C 300.828 188.201 300.604 188.189 300.434 188.182 C 300.263 188.176 300.013 188.156 299.878 188.139 C 299.743 188.121 299.522 188.087 299.386 188.062 C 299.252 188.039 299.078 188.004 299.002 187.987 C 298.926 187.969 298.805 187.94 298.734 187.922 C 298.664 187.904 298.553 187.872 298.488 187.852 C 298.424 187.831 298.314 187.798 298.243 187.776 C 298.173 187.755 298.086 187.725 298.05 187.711 C 298.016 187.696 297.933 187.663 297.869 187.637 C 297.804 187.612 297.723 187.577 297.688 187.562 C 297.652 187.546 297.513 187.481 297.377 187.415 C 297.242 187.348 297.04 187.241 296.928 187.177 C 296.817 187.111 296.723 187.049 296.72 187.038 C 296.717 187.027 296.706 187.018 296.693 187.018 C 296.682 187.018 296.604 186.969 296.523 186.911 C 296.441 186.852 296.353 186.787 296.327 186.766 C 296.303 186.746 296.259 186.71 296.233 186.686 C 296.205 186.663 296.15 186.62 296.112 186.591 C 296.074 186.562 295.931 186.426 295.796 186.289 C 295.661 186.154 295.525 186.013 295.494 185.979 C 295.464 185.945 295.393 185.859 295.336 185.789 C 295.278 185.718 295.224 185.658 295.215 185.655 C 295.205 185.652 295.197 185.64 295.197 185.629 C 295.197 185.616 295.152 185.542 295.094 185.463 C 295.038 185.384 294.964 185.272 294.929 185.215 C 294.895 185.158 294.85 185.086 294.83 185.055 C 294.81 185.024 294.78 184.973 294.763 184.945 C 294.748 184.915 294.69 184.804 294.637 184.699 C 294.584 184.592 294.512 184.444 294.478 184.367 C 294.442 184.291 294.398 184.187 294.379 184.137 C 294.359 184.088 294.33 184.01 294.313 183.967 C 294.296 183.922 294.264 183.833 294.24 183.769 C 294.216 183.704 294.18 183.593 294.16 183.523 C 294.139 183.452 294.106 183.337 294.085 183.266 C 294.064 183.196 294.032 183.076 294.015 182.999 C 293.997 182.924 293.968 182.783 293.949 182.69 C 293.931 182.595 293.901 182.422 293.883 182.305 C 293.864 182.187 293.835 181.914 293.818 181.696 C 293.801 181.478 293.788 181.156 293.788 180.979 C 293.787 180.804 293.797 180.524 293.809 180.36 C 293.821 180.195 293.85 179.926 293.875 179.761 C 293.898 179.597 293.931 179.394 293.949 179.312 C 293.966 179.231 293.995 179.091 294.013 179.003 C 294.03 178.915 294.064 178.78 294.085 178.704 C 294.107 178.627 294.142 178.502 294.162 178.425 C 294.182 178.35 294.213 178.249 294.23 178.201 C 294.247 178.154 294.271 178.086 294.28 178.052 C 294.29 178.016 294.325 177.911 294.357 177.816 C 294.391 177.723 294.424 177.636 294.431 177.624 C 294.439 177.612 294.47 177.536 294.502 177.453 C 294.533 177.371 294.572 177.275 294.588 177.24 C 294.603 177.204 294.69 177.026 294.78 176.844 C 294.87 176.661 294.965 176.477 294.99 176.433 C 295.016 176.389 295.065 176.302 295.098 176.241 C 295.133 176.179 295.188 176.087 295.222 176.037 C 295.255 175.987 295.283 175.942 295.283 175.935 C 295.283 175.93 295.297 175.908 295.313 175.887 C 295.331 175.867 295.376 175.807 295.415 175.754 C 295.455 175.702 295.534 175.59 295.593 175.508 C 295.652 175.427 295.714 175.344 295.732 175.327 C 295.751 175.309 295.808 175.241 295.86 175.177 C 295.911 175.112 296.047 174.969 296.158 174.856 C 296.271 174.745 296.464 174.574 296.586 174.475 C 296.71 174.377 296.828 174.283 296.848 174.267 C 296.869 174.25 296.896 174.237 296.907 174.237 C 296.919 174.237 296.931 174.229 296.934 174.22 C 296.937 174.211 297.03 174.149 297.143 174.083 C 297.254 174.018 297.423 173.927 297.516 173.884 C 297.611 173.84 297.707 173.796 297.73 173.786 C 297.753 173.775 297.797 173.758 297.827 173.746 C 297.868 173.731 297.889 173.734 297.922 173.763 C 297.946 173.783 298.042 173.861 298.136 173.936 C 298.23 174.013 298.312 174.08 298.318 174.086 C 298.324 174.093 298.372 174.132 298.425 174.173 C 298.477 174.214 298.544 174.267 298.573 174.29 C 298.601 174.313 298.659 174.361 298.701 174.398 C 298.743 174.432 298.82 174.497 298.873 174.539 C 298.927 174.581 298.993 174.637 299.024 174.662 C 299.052 174.686 299.087 174.714 299.098 174.722 C 299.11 174.732 299.197 174.801 299.29 174.877 C 299.384 174.953 299.466 175.021 299.472 175.027 C 299.477 175.034 299.526 175.072 299.579 175.113 C 299.632 175.153 299.685 175.197 299.699 175.209 C 299.712 175.221 299.795 175.288 300.047 175.487 L 300.049 175.828 L 299.94 175.893 C 299.88 175.928 299.815 175.967 299.795 175.978 C 299.777 175.991 299.732 176.02 299.696 176.042 C 299.661 176.064 299.574 176.126 299.504 176.179 C 299.434 176.232 299.344 176.304 299.304 176.34 C 299.264 176.377 299.181 176.455 299.122 176.515 C 299.061 176.575 298.98 176.661 298.94 176.707 C 298.9 176.753 298.817 176.858 298.754 176.941 C 298.692 177.023 298.603 177.153 298.555 177.229 C 298.507 177.305 298.41 177.488 298.338 177.635 C 298.266 177.781 298.199 177.922 298.188 177.945 C 298.178 177.968 298.127 178.117 298.075 178.275 C 298.022 178.434 297.96 178.646 297.937 178.746 C 297.912 178.846 297.875 179.028 297.85 179.152 C 297.827 179.275 297.797 179.439 297.783 179.516 C 297.771 179.592 297.751 179.823 297.738 180.028 C 297.724 180.246 297.72 180.662 297.727 181.023 C 297.733 181.398 297.752 181.743 297.772 181.898 C 297.791 182.039 297.827 182.252 297.85 182.369 C 297.875 182.486 297.918 182.679 297.947 182.797 C 297.976 182.914 298.008 183.039 298.017 183.074 C 298.026 183.109 298.049 183.169 298.068 183.207 C 298.088 183.246 298.104 183.287 298.104 183.298 C 298.104 183.311 298.119 183.356 298.138 183.401 C 298.156 183.444 298.216 183.571 298.272 183.683 C 298.326 183.794 298.424 183.965 298.488 184.059 C 298.553 184.155 298.65 184.284 298.702 184.346 C 298.755 184.408 298.822 184.48 298.85 184.504 C 298.879 184.529 298.939 184.583 298.983 184.624 C 299.029 184.664 299.077 184.708 299.092 184.72 C 299.107 184.731 299.153 184.767 299.194 184.797 C 299.235 184.827 299.284 184.858 299.3 184.866 C 299.319 184.875 299.362 184.899 299.397 184.922 C 299.433 184.945 299.505 184.985 299.557 185.011 C 299.611 185.037 299.688 185.071 299.729 185.088 C 299.77 185.104 299.861 185.135 299.931 185.157 C 300.002 185.178 300.141 185.216 300.241 185.239 C 300.342 185.264 300.51 185.294 300.615 185.306 C 300.721 185.318 300.88 185.328 301.128 185.329 L 301.146 182.961 C 301.155 181.66 301.171 180.335 301.181 180.017 C 301.191 179.7 301.21 179.306 301.224 179.142 C 301.237 178.977 301.267 178.684 301.29 178.49 C 301.314 178.295 301.348 178.046 301.366 177.934 C 301.384 177.823 301.418 177.635 301.443 177.518 C 301.467 177.4 301.516 177.183 301.551 177.036 C 301.585 176.889 301.646 176.668 301.687 176.545 C 301.727 176.421 301.775 176.289 301.792 176.251 C 301.809 176.212 301.823 176.174 301.823 176.165 C 301.823 176.156 301.842 176.111 301.864 176.064 C 301.887 176.016 301.921 175.94 301.94 175.893 C 301.959 175.846 301.986 175.788 301.999 175.765 C 302.012 175.742 302.051 175.669 302.085 175.605 C 302.118 175.54 302.157 175.468 302.171 175.445 C 302.186 175.421 302.245 175.33 302.303 175.241 C 302.361 175.153 302.462 175.013 302.526 174.931 C 302.591 174.848 302.668 174.754 302.698 174.719 C 302.729 174.686 302.783 174.628 302.82 174.591 C 302.856 174.555 302.914 174.501 302.948 174.471 C 302.981 174.442 303.062 174.375 303.128 174.322 C 303.193 174.269 303.299 174.192 303.363 174.152 C 303.427 174.111 303.484 174.071 303.49 174.063 C 303.496 174.054 303.621 173.989 303.768 173.916 C 303.915 173.844 304.052 173.776 304.072 173.765 C 304.093 173.754 304.12 173.745 304.131 173.745 C 304.143 173.745 304.193 173.727 304.243 173.706 C 304.293 173.684 304.387 173.65 304.451 173.632 C 304.517 173.612 304.623 173.582 304.687 173.565 C 304.752 173.547 304.891 173.514 304.996 173.491 C 305.102 173.468 305.271 173.437 305.37 173.422 C 305.47 173.408 305.663 173.389 305.798 173.38 C 305.934 173.371 306.232 173.367 306.461 173.371 Z M 305.884 176.348 C 305.785 176.396 305.703 176.459 305.595 176.57 C 305.513 176.656 305.434 176.746 305.42 176.769 C 305.406 176.793 305.356 176.889 305.31 176.983 C 305.263 177.077 305.211 177.192 305.193 177.24 C 305.176 177.287 305.147 177.382 305.128 177.453 C 305.109 177.523 305.079 177.649 305.06 177.731 C 305.04 177.813 305.011 177.972 304.993 178.084 C 304.976 178.195 304.953 178.383 304.943 178.5 C 304.932 178.618 304.909 178.887 304.891 179.098 C 304.864 179.419 304.859 179.977 304.859 182.406 L 304.857 185.329 C 305.114 185.328 305.296 185.314 305.425 185.297 C 305.554 185.279 305.746 185.24 305.852 185.21 C 305.957 185.18 306.073 185.148 306.109 185.139 C 306.143 185.13 306.192 185.113 306.216 185.1 C 306.239 185.088 306.316 185.05 306.386 185.017 C 306.457 184.985 306.563 184.928 306.621 184.893 C 306.679 184.859 306.788 184.783 306.862 184.727 C 306.935 184.67 307.073 184.544 307.169 184.447 C 307.264 184.351 307.386 184.208 307.439 184.133 C 307.492 184.056 307.576 183.926 307.625 183.843 C 307.674 183.761 307.735 183.647 307.762 183.586 C 307.788 183.529 307.827 183.442 307.849 183.395 C 307.872 183.347 307.918 183.218 307.954 183.106 C 307.991 182.995 308.039 182.836 308.061 182.753 C 308.084 182.671 308.116 182.532 308.135 182.444 C 308.153 182.355 308.182 182.183 308.2 182.059 C 308.218 181.936 308.244 181.7 308.26 181.535 C 308.277 181.359 308.287 180.956 308.285 180.552 C 308.284 180.176 308.272 179.647 308.259 179.376 C 308.245 179.106 308.219 178.76 308.201 178.607 C 308.183 178.454 308.154 178.243 308.136 178.137 C 308.119 178.032 308.084 177.858 308.06 177.753 C 308.035 177.647 307.997 177.505 307.975 177.437 C 307.954 177.37 307.905 177.244 307.867 177.16 C 307.828 177.074 307.762 176.952 307.717 176.887 C 307.673 176.822 307.577 176.708 307.502 176.634 C 307.429 176.559 307.317 176.467 307.252 176.43 C 307.187 176.393 307.086 176.347 307.027 176.324 C 306.969 176.303 306.829 176.272 306.717 176.254 C 306.606 176.238 306.467 176.225 306.408 176.227 C 306.349 176.228 306.238 176.241 306.162 176.255 C 306.085 176.27 305.961 176.311 305.884 176.348 Z" style="fill: rgb(255, 193, 7); white-space: pre;"/>
</svg>