<?xml version="1.0" encoding="utf-8"?>
<svg version="1.1" id="Layer_1" width="135.4" height="131.601" viewBox="0 0 135.4 131.601" overflow="visible" enable-background="new 0 0 135.4 131.601" xmlns="http://www.w3.org/2000/svg">
  <g style="" transform="matrix(0.699855, 0, 0, 0.673156, 20.342928, 22.326323)">
    <path d="M 90.4 6.4 C 77.6 7.2 76.2 8.4 76.2 15.8 C 100.8 16.6 135.4 28 135.4 64.2 C 135.4 101 100 114 76.2 114.4 C 76.2 123.4 77.8 124.4 90.4 125.2 L 90.4 131.6 L 45 131.6 L 45 125.2 C 57.6 124.4 59.2 123.4 59.2 114.4 C 36 114 0 102 0 65.6 C 0 29.6 34.8 16.8 59.2 15.8 C 59.2 8.4 57.6 7.2 46.2 6.4 L 46.2 0 L 90.4 0 L 90.4 6.4 Z M 59.2 23.2 C 42.2 24 19 33.8 19 64 C 19 95 41.8 105.8 59.2 107 L 59.2 23.2 Z M 76.2 107 C 93.2 105.8 116.6 96 116.6 65 C 116.6 33.8 93.2 24 76.2 23.2 L 76.2 107 Z M 159.823 64.607 C 159.823 90.524 149.238 115.126 132.948 132.062 C 116.657 148.999 92.994 160.004 68.066 160.004 C 43.138 160.004 19.474 148.999 3.184 132.062 C -13.107 115.126 -23.692 90.524 -23.692 64.607 C -23.692 38.69 -13.107 14.088 3.184 -2.848 C 19.474 -19.785 43.138 -30.79 68.066 -30.79 C 92.994 -30.79 116.657 -19.785 132.948 -2.848 C 149.238 14.088 159.823 38.69 159.823 64.607 Z M 124.865 5.555 C 110.014 -9.884 90.657 -18.905 68.066 -18.905 C 45.474 -18.905 26.117 -9.884 11.267 5.555 C -3.583 20.995 -12.261 41.119 -12.261 64.607 C -12.261 88.095 -3.583 108.22 11.267 123.659 C 26.117 139.098 45.474 148.12 68.066 148.12 C 90.657 148.12 110.014 139.098 124.865 123.659 C 139.715 108.22 148.392 88.095 148.392 64.607 C 148.392 41.119 139.715 20.995 124.865 5.555 Z"/>
  </g>
</svg>