<?xml version="1.0" encoding="utf-8"?>
<svg version="1.1" id="Layer_1" width="135.4" height="131.601" viewBox="0 0 135.4 131.601" overflow="visible" enable-background="new 0 0 135.4 131.601" xmlns="http://www.w3.org/2000/svg">
  <path d="M 83.61 26.635 C 74.652 27.173 73.672 27.981 73.672 32.962 C 90.888 33.501 115.103 41.175 115.103 65.543 C 115.103 90.315 90.328 99.066 73.672 99.335 C 73.672 105.394 74.792 106.067 83.61 106.605 L 83.61 110.914 L 51.836 110.914 L 51.836 106.605 C 60.655 106.067 61.774 105.394 61.774 99.335 C 45.538 99.066 20.343 90.988 20.343 66.485 C 20.343 42.252 44.698 33.635 61.774 32.962 C 61.774 27.981 60.655 27.173 52.676 26.635 L 52.676 22.326 L 83.61 22.326 L 83.61 26.635 Z M 61.774 37.944 C 49.877 38.482 33.64 45.079 33.64 65.408 C 33.64 86.276 49.597 93.546 61.774 94.354 L 61.774 37.944 Z M 73.672 94.354 C 85.569 93.546 101.946 86.949 101.946 66.081 C 101.946 45.079 85.569 38.482 73.672 37.944 L 73.672 94.354 Z M 132.196 65.817 C 132.196 83.263 124.788 99.824 113.387 111.225 C 101.986 122.626 85.425 130.034 67.979 130.034 C 50.533 130.034 33.972 122.626 22.571 111.225 C 11.17 99.824 3.762 83.263 3.762 65.817 C 3.762 48.371 11.17 31.81 22.571 20.409 C 33.972 9.008 50.533 1.6 67.979 1.6 C 85.425 1.6 101.986 9.008 113.387 20.409 C 124.788 31.81 132.196 48.371 132.196 65.817 Z M 107.73 26.066 C 97.337 15.673 83.79 9.6 67.979 9.6 C 52.168 9.6 38.621 15.673 28.228 26.066 C 17.835 36.459 11.762 50.006 11.762 65.817 C 11.762 81.628 17.835 95.175 28.228 105.568 C 38.621 115.961 52.168 122.034 67.979 122.034 C 83.79 122.034 97.337 115.961 107.73 105.568 C 118.123 95.175 124.196 81.628 124.196 65.817 C 124.196 50.006 118.123 36.459 107.73 26.066 Z" style=""/>
</svg>