<svg version="1.2" baseProfile="tiny-ps" xmlns="http://www.w3.org/2000/svg" viewBox="0 0 660 576" width="660" height="576">
	<title>-e- Path 0</title>
	<style>
		tspan { white-space:pre }
		.shp0 { fill: #323336}
	</style>
	<path id="-e- Path 0" fill-rule="evenodd" class="shp0" d="M603.5 0.09C604.6 0.04 608.42 0.62 612 1.38C615.57 2.13 620.3 3.24 622.5 3.84C624.7 4.43 628.75 6.1 631.5 7.55C634.25 9 638.3 11.56 640.5 13.25C642.7 14.93 646.3 18.48 648.5 21.12C650.7 23.77 653.5 27.86 654.72 30.22C655.93 32.57 657.68 37.42 658.59 41C659.78 45.68 660.07 49.53 659.62 54.75C659.28 58.74 657.98 64.81 656.74 68.25C655.5 71.69 652.91 77.19 650.99 80.49C649.07 83.78 643 91.01 637.5 96.55C632 102.1 624.01 108.97 619.75 111.82C615.49 114.67 611.55 116.77 611 116.5C610.45 116.22 610 112.62 610 101L604.75 100.98C601.86 100.97 596.35 100.31 592.5 99.5C588.65 98.7 581.9 96.27 577.5 94.12C571.4 91.13 567.96 88.56 563 83.31C559.42 79.53 555.51 74.42 554.3 71.97C553.1 69.51 551.41 64.8 550.55 61.5C549.69 58.2 548.98 53.25 548.97 50.5C548.96 47.75 549.92 42.35 551.1 38.5C552.28 34.65 554.71 29.25 556.49 26.5C558.28 23.75 561.94 19.35 564.62 16.71C567.3 14.08 572.87 10.2 577 8.08C581.12 5.97 586.97 3.67 590 2.98C593.02 2.28 596.85 1.37 598.5 0.95C600.15 0.52 602.4 0.14 603.5 0.09ZM581.5 17.72C579.3 18.85 575.25 21.78 572.5 24.24C569.75 26.7 566.26 31.14 564.75 34.11C563.24 37.07 561.44 42.09 560.75 45.25C559.75 49.87 559.75 52.13 560.76 56.75C561.46 59.91 562.9 64.3 563.96 66.5C565.02 68.7 567.66 72.52 569.83 75C572 77.47 576.19 80.95 579.14 82.73C582.09 84.5 588.32 86.92 593 88.1C599.11 89.65 603.04 90.08 607 89.65C610.02 89.33 614.38 88.71 616.68 88.28C620.78 87.51 620.86 87.55 621.18 90.5C621.35 92.15 622.07 93.5 622.76 93.5C623.46 93.5 626.98 90.57 630.58 87C634.18 83.42 638.77 78.02 640.77 75C642.77 71.97 645.22 67.36 646.2 64.75C647.19 62.14 648.28 57.41 648.63 54.25C649.08 50.17 648.76 46.76 647.53 42.5C646.57 39.2 644.6 34.51 643.15 32.07C641.69 29.64 638.47 25.88 636 23.72C633.52 21.56 629.47 18.77 627 17.53C624.52 16.28 619.57 14.53 616 13.64C612.42 12.75 607.02 12.04 604 12.07C600.97 12.1 595.57 12.92 592 13.89C588.42 14.87 583.7 16.59 581.5 17.72ZM577.11 44.9L587.5 45.5L588 56L577 56L577.11 44.9ZM609.5 45.5L610 56L599 56L598.83 51.17C598.74 48.51 599.06 46.01 599.54 45.62C600.03 45.23 602.46 45.04 609.5 45.5ZM632 45L632 56L621 56L620.83 51.17C620.74 48.51 621.04 46.03 621.5 45.67C621.96 45.3 624.51 45 632 45ZM476.25 64.08C479.96 64.04 486.49 64.7 490.75 65.56C495.26 66.47 502.47 69.04 508 71.71C516 75.58 518.85 77.66 526.04 84.9C532.81 91.71 535.45 95.26 538.76 102C541.06 106.67 543.68 113.65 544.58 117.5C545.5 121.4 546.23 128.71 546.24 134C546.24 140.6 545.59 145.87 544.12 151.25C542.95 155.51 540.82 161.36 539.38 164.25C537.94 167.14 535.24 171.64 533.38 174.25C531.52 176.86 530.11 179.15 530.25 179.33C530.39 179.51 533.87 181.25 538 183.2C542.12 185.15 548.2 188.6 551.5 190.87C554.8 193.15 560.8 198.27 564.84 202.25C568.88 206.24 574.59 213.1 577.53 217.5C580.47 221.9 584.03 228.09 585.44 231.25C586.85 234.41 589.18 240.94 590.62 245.75C592.77 252.96 593.34 257.37 594.5 287.01L578.75 287C565.42 287 563 287.23 563 288.5C563 289.32 563.76 294.39 564.7 299.75C565.93 306.84 566.41 315.51 566.45 331.5C566.48 345.12 565.99 356.93 565.15 362.5C564.41 367.45 562.71 376.22 561.38 382C560.05 387.77 557.79 396.1 556.35 400.5C554.92 404.9 551.96 412.77 549.78 418C547.6 423.22 543.75 431.32 541.23 436C538.72 440.67 534.19 448.32 531.18 453C528.17 457.67 522.23 465.77 517.98 471C513.73 476.22 505.59 485.03 499.88 490.57C494.17 496.11 484.7 504.21 478.84 508.57C472.97 512.93 463.52 519.19 457.84 522.47C452.15 525.76 443.34 530.37 438.25 532.72C433.16 535.08 428.98 537.34 428.96 537.75C428.94 538.16 434 540.59 440.21 543.14C446.42 545.69 451.62 548.17 451.76 548.64C451.9 549.11 449.6 555.35 446.64 562.5C443.18 570.85 440.76 575.43 439.88 575.32C439.12 575.22 420.27 567.66 398 558.53C375.72 549.4 357.43 541.83 357.35 541.72C357.27 541.6 368.3 524.08 381.85 502.8C395.41 481.51 406.84 464.08 407.25 464.05C407.66 464.02 413.29 467.4 419.75 471.57C426.21 475.73 431.72 479.32 432 479.54C432.27 479.77 428.56 486.04 423.75 493.48C418.94 500.91 414.77 507.67 414.5 508.5C414.22 509.32 414.22 510 414.5 510C414.77 510 418.94 508.26 423.75 506.14C428.56 504.02 435.65 500.51 439.5 498.33C443.35 496.16 449.65 492.31 453.5 489.77C457.35 487.24 464.98 481.41 470.46 476.83C475.94 472.25 484.19 464.22 488.78 459C493.37 453.77 500.17 445 503.89 439.5C507.61 434 512.47 426.12 514.7 422C516.94 417.87 520.33 410.67 522.24 406C524.16 401.32 526.89 393.9 528.31 389.5C529.73 385.1 531.78 377.22 532.86 372C533.95 366.77 535.39 357.32 536.07 351C536.83 343.87 537.07 333.99 536.69 325C536.35 317.02 535.38 306.67 534.54 302C533.69 297.32 532.62 292.15 531.36 287.5L360 287L359.99 275.75C359.98 269.56 360.66 260.56 361.49 255.75C362.32 250.94 363.96 244.19 365.14 240.75C366.32 237.31 368.62 231.8 370.27 228.5C371.91 225.2 375.42 219.35 378.07 215.5C380.71 211.65 386.17 205.32 390.19 201.43C394.21 197.54 400.42 192.39 404 189.99C407.57 187.59 413.42 184.29 417 182.65C420.57 181.01 423.61 179.52 423.75 179.34C423.89 179.15 422.46 176.86 420.57 174.25C418.69 171.64 415.78 166.57 414.11 163C412.44 159.42 410.31 153.57 409.39 150C408.29 145.78 407.73 139.82 407.78 133C407.83 125.08 408.43 120.53 410.2 114.5C411.49 110.1 414.3 103.35 416.43 99.5C418.84 95.15 423.36 89.44 428.4 84.42C435.05 77.78 438.2 75.51 446 71.72C451.22 69.18 458.65 66.45 462.5 65.64C466.35 64.83 472.54 64.13 476.25 64.08ZM459.5 98.4C456.75 99.73 452.3 102.99 449.62 105.65C446.93 108.32 443.8 112.3 442.65 114.5C441.5 116.7 439.97 120.3 439.26 122.5C438.55 124.7 437.96 129.65 437.94 133.5C437.93 137.35 438.62 142.75 439.47 145.5C440.32 148.25 442.48 152.71 444.26 155.42C446.04 158.12 449.3 161.8 451.5 163.6C453.7 165.39 458.2 168.13 461.5 169.68C466.76 172.15 468.66 172.5 477 172.5C484.79 172.5 487.4 172.08 491.5 170.2C494.25 168.94 498.27 166.69 500.43 165.2C502.59 163.72 506.33 159.8 508.75 156.5C511.16 153.2 513.8 148.25 514.6 145.5C515.41 142.75 516.06 137.35 516.05 133.5C516.03 129.65 515.44 124.7 514.73 122.5C514.02 120.3 512.5 116.7 511.35 114.5C510.2 112.3 507.07 108.32 504.38 105.65C501.7 102.99 497.25 99.73 494.5 98.42C491.75 97.1 487.02 95.57 484 95C480.97 94.44 477.38 94.03 476 94.1C474.62 94.17 471.47 94.62 469 95.11C466.52 95.59 462.25 97.08 459.5 98.4ZM444 205.1C440.97 205.7 435.8 207.36 432.5 208.79C429.2 210.22 424.02 213.06 421 215.11C417.97 217.15 413.25 221 410.5 223.66C407.75 226.32 403.71 231.2 401.53 234.5C399.35 237.8 396.57 242.97 395.35 246C394.14 249.02 392.89 252.74 392.57 254.25L392 257L562.5 257.05C561.32 251.97 559.23 246.9 557.1 242.5C554.97 238.1 551.02 231.8 548.33 228.5C545.64 225.2 540.3 220.15 536.47 217.27C532.64 214.39 526.13 210.63 522 208.9C517.87 207.17 511.13 205.15 507 204.41C502.04 203.52 491.88 203.1 477 203.17C464.62 203.23 453.37 203.44 452 203.64C450.62 203.84 447.02 204.49 444 205.1ZM124 80L134.17 80L134.5 92.28L139.75 93.64C142.64 94.39 146.69 95.86 148.75 96.9C150.81 97.95 154.25 100.54 156.39 102.65C158.52 104.77 161.1 108.3 162.11 110.5C163.12 112.7 164.07 116.3 164.5 122.5L144.63 122.5L143.85 119.5C143.42 117.85 141.7 115.04 140.03 113.25C138.36 111.46 136.32 110 135.5 110C134.23 110 134.04 112.06 134.5 137.15L141.5 139.85C145.35 141.34 150.52 143.74 153 145.19C155.47 146.64 158.94 149.33 160.7 151.16C162.46 153 164.55 156.07 165.34 158C166.13 159.92 167.09 163.3 167.47 165.5C167.85 167.7 167.69 171.97 167.11 175C166.52 178.09 164.62 182.68 162.78 185.47C160.97 188.2 157.7 191.82 155.5 193.52C153.3 195.21 149.25 197.33 146.5 198.22C143.75 199.11 139.81 200.1 134 201L134 212L124 212L124.03 200.5L120.27 199.91C118.19 199.58 114.02 198.21 111 196.86C107.97 195.51 103.47 192.58 101 190.35C98.52 188.12 95.53 184.09 94.34 181.4C93.15 178.7 91.91 174.36 91 167L111.42 167.5L111.99 170.5C112.3 172.15 113.41 174.85 114.45 176.5C115.49 178.15 117.26 180.17 118.39 181C119.51 181.82 121.24 182.84 122.22 183.25C123.88 183.95 124 182.96 124 152L121.25 151.38C119.74 151.05 115.35 149.29 111.5 147.49C107.06 145.4 102.95 142.52 100.25 139.6C97.69 136.83 95.56 133.31 94.89 130.75C94.28 128.41 93.96 123.35 94.19 119.5C94.5 114.26 95.28 111.3 97.3 107.75C98.79 105.14 101.46 101.92 103.25 100.6C105.04 99.27 108.52 97.16 111 95.91C113.47 94.65 117.42 93.37 124.03 92.5L124.01 86.25L124 80ZM285.91 82.49C286.79 82.83 304.5 92.65 325.29 104.3C350.01 118.17 362.89 125.93 362.54 126.75C362.24 127.44 349.79 142.74 334.86 160.75C319.94 178.76 307 194.34 306.11 195.36C304.57 197.15 304.02 196.83 293.22 187.86C287.01 182.71 281.95 178.16 281.97 177.75C281.99 177.34 286.72 171.37 292.5 164.5C298.27 157.62 303 151.77 303 151.5C303 151.22 301.54 151.27 299.75 151.6C297.96 151.92 292.45 153.55 287.5 155.2C282.55 156.86 272.65 161.05 265.5 164.51C258.35 167.98 248.25 173.67 243.06 177.16C237.87 180.65 229.99 186.68 225.56 190.58C221.13 194.47 214.17 201.22 210.09 205.58C206.02 209.93 199.7 217.55 196.06 222.5C192.42 227.45 187.47 234.87 185.05 239C182.63 243.12 178.9 250.32 176.76 255C174.62 259.67 171.52 267.32 169.87 272C168.22 276.67 165.97 284.32 164.86 289C163.76 293.67 162.43 299.97 161.91 303C161.38 306.02 160.52 314.35 159.99 321.5C159.35 330.17 159.37 339.16 160.07 348.5C160.65 356.2 161.43 362.81 161.81 363.18C162.19 363.56 166.1 362.1 170.5 359.95C174.9 357.8 181.54 355.36 185.25 354.52C188.96 353.68 195.94 353.01 200.75 353.02C205.56 353.03 212.65 353.71 216.5 354.53C220.35 355.35 227.32 357.91 232 360.22C238.68 363.53 242.34 366.26 249.1 372.97C254.44 378.27 259.05 383.96 261.27 388C263.23 391.57 265.81 397.42 267.01 401C268.46 405.34 269.36 411.15 269.73 418.5C270.14 426.72 269.87 431.39 268.63 437C267.73 441.12 265.6 447.42 263.91 451C262.22 454.57 259.3 459.64 257.42 462.25C255.54 464.86 254 467.22 254 467.5C254 467.77 256.81 469.27 260.25 470.81C263.69 472.36 270.1 476.05 274.5 479.01C278.9 481.98 285.42 487.36 289 490.97C292.57 494.58 298.06 501.35 301.18 506.02C304.31 510.68 308.21 517.65 309.85 521.5C311.49 525.35 313.82 532.1 315.02 536.5C316.6 542.3 317.38 548.83 318.5 576.01L84 576L84.38 559.75C84.67 547.08 85.23 541.74 86.92 535.5C88.12 531.1 91.29 523 93.97 517.5C96.83 511.62 101.65 504 105.68 499C109.44 494.32 116.34 487.44 121.01 483.71C125.75 479.92 133.58 474.95 148 468L144.62 463.25C142.77 460.64 140.11 456.25 138.73 453.5C137.35 450.75 135.16 445.12 133.88 441C131.97 434.87 131.56 431.4 131.63 422C131.69 412.9 132.18 409.04 133.99 403.5C135.24 399.65 136.29 394.92 136.32 393C136.35 391.07 135.2 383.87 133.75 377C132.31 370.12 130.61 357.75 129.96 349.5C129.3 341.08 129.08 329.67 129.45 323.5C129.82 317.45 130.77 308 131.57 302.5C132.38 297 133.93 288.67 135.04 284C136.14 279.32 138.65 270.55 140.61 264.5C142.58 258.45 146.99 247.65 150.42 240.5C153.85 233.35 159.16 223.45 162.23 218.5C165.3 213.55 170.57 205.9 173.94 201.5C177.32 197.1 183.78 189.48 188.29 184.57C192.81 179.65 201 171.86 206.5 167.25C212 162.64 221.45 155.56 227.5 151.51C233.55 147.46 245.02 141.01 253 137.17C260.97 133.33 272.67 128.53 279 126.5C285.32 124.47 291.4 122.48 292.5 122.08C294.11 121.5 292.1 120.05 282.25 114.68C275.51 111.01 270.11 107.65 270.25 107.22C270.39 106.79 273.61 100.91 277.41 94.16C282.72 84.72 284.69 82.02 285.91 82.49ZM135.75 184C136.71 183.99 138.96 183.09 140.75 182C142.54 180.9 144.75 178.76 145.68 177.25C146.83 175.35 147.22 173.06 146.93 169.85C146.64 166.69 145.7 164.34 144 162.5C142.62 161.02 140.26 159.18 138.75 158.4C137.24 157.63 135.55 157 135 157C134.38 157 134 162.17 134 170.5C134 182.69 134.17 184 135.75 184ZM115 115C114.45 116.1 114.02 118.91 114.04 121.25C114.08 124.79 114.71 126.12 117.79 129.21C119.83 131.24 122.06 132.93 122.75 132.96C123.68 132.99 124 129.96 124 121C124 114.4 123.66 109 123.25 109C122.84 109.01 121.04 109.91 119.25 111C117.46 112.1 115.55 113.9 115 115ZM182 387.5C180.07 388.51 176.31 391.4 173.63 393.92C170.96 396.44 167.52 400.97 165.98 404C164.45 407.02 162.69 412.2 162.07 415.5C161.27 419.76 161.24 423.38 161.96 428C162.53 431.57 164.22 436.97 165.73 440C167.24 443.02 170.5 447.53 172.98 450.02C175.47 452.5 179.97 455.76 183 457.27C186.02 458.78 191.42 460.47 195 461.04C199.51 461.75 203.19 461.74 207 461.01C210.02 460.43 214.75 458.93 217.5 457.68C220.25 456.43 224.69 453.4 227.37 450.95C230.04 448.5 233.29 444.7 234.58 442.5C235.87 440.3 237.67 436.02 238.57 433C239.66 429.32 240.08 425.01 239.84 420C239.55 414.1 238.78 411.06 236.23 405.75C234.46 402.04 230.97 396.97 228.5 394.5C226.02 392.02 220.96 388.54 217.25 386.75C211.49 383.99 209.25 383.48 202 383.27C197.03 383.14 191.84 383.58 189.5 384.35C187.3 385.07 183.92 386.49 182 387.5ZM156 497.56C152.42 499.12 147.02 502.04 144 504.06C140.97 506.07 135.85 510.59 132.62 514.11C129.38 517.62 125.04 523.42 122.98 527C120.92 530.57 118.5 535.64 117.61 538.25C116.73 540.86 116 543.67 116 544.5C116 545.82 126.15 546 201.25 546.02L286.5 546.05C285.31 540.97 283.36 536.12 281.39 532C279.43 527.87 276.43 522.7 274.74 520.5C273.04 518.3 270.27 514.99 268.58 513.14C266.88 511.29 263.02 507.94 260 505.7C256.97 503.46 251.35 500.13 247.5 498.31C243.65 496.5 237.35 494.34 233.5 493.52C228.28 492.41 219.9 492.05 200.5 492.1C183.38 492.14 172.45 492.6 168.5 493.44C165.2 494.15 159.57 496 156 497.56ZM58 315.5C63.22 315.73 69.75 316.63 72.5 317.5C75.25 318.38 80.42 320.64 84 322.52C87.57 324.4 92.7 328.09 95.38 330.72C98.06 333.35 101.72 337.75 103.51 340.5C105.29 343.25 107.72 348.65 108.9 352.5C110.08 356.35 111.04 361.75 111.03 364.5C111.02 367.25 110.31 372.2 109.45 375.5C108.59 378.8 106.9 383.51 105.7 385.97C104.49 388.42 100.57 393.53 97 397.31C92.04 402.56 88.6 405.13 82.5 408.12C78.1 410.27 71.35 412.7 67.5 413.5C63.65 414.31 58.14 414.97 50 415L50 422.5C50 426.62 49.55 430.22 49 430.5C48.45 430.77 44.51 428.67 40.25 425.82C35.99 422.97 28 416.1 22.5 410.55C17 405.01 10.93 397.78 9.01 394.49C7.09 391.19 4.5 385.69 3.26 382.25C2.02 378.81 0.72 372.74 0.38 368.75C-0.07 363.53 0.22 359.68 1.41 355C2.32 351.42 4.07 346.57 5.28 344.22C6.5 341.86 9.3 337.77 11.5 335.12C13.7 332.48 17.3 328.93 19.5 327.25C21.7 325.56 25.75 323 28.5 321.56C31.25 320.11 35.97 318.29 39 317.5C42.02 316.71 45.4 315.85 46.5 315.58C47.6 315.32 52.77 315.28 58 315.5ZM32.5 331.73C30.3 332.87 26.47 335.56 24 337.72C21.52 339.88 18.31 343.64 16.85 346.07C15.4 348.51 13.43 353.2 12.47 356.5C11.24 360.76 10.92 364.17 11.37 368.25C11.72 371.41 12.81 376.14 13.8 378.75C14.78 381.36 17.23 385.97 19.23 389C21.23 392.02 25.82 397.42 29.42 401C33.02 404.57 36.54 407.5 37.24 407.5C37.93 407.5 38.65 406.15 38.82 404.5C39.14 401.55 39.22 401.51 43.32 402.28C45.62 402.71 49.97 403.33 53 403.65C56.96 404.08 60.89 403.65 67 402.1C71.67 400.92 77.91 398.5 80.86 396.73C83.81 394.95 88 391.47 90.17 389C92.34 386.52 94.98 382.7 96.04 380.5C97.1 378.3 98.54 373.91 99.24 370.75C100.25 366.13 100.25 363.87 99.25 359.25C98.56 356.09 96.76 351.07 95.25 348.11C93.74 345.14 90.25 340.7 87.5 338.24C84.75 335.78 80.47 332.75 78 331.51C75.52 330.27 70.57 328.53 67 327.64C63.42 326.75 58.02 326.04 55 326.07C51.97 326.1 46.57 326.92 43 327.89C39.42 328.87 34.7 330.59 32.5 331.73ZM28.11 358.9L38.5 359.5L39 370L28 370L28.05 364.45L28.11 358.9ZM60.5 359.5L61 370L50 370L49.83 365.17C49.74 362.51 50.06 360.01 50.54 359.62C51.03 359.23 53.46 359.04 60.5 359.5ZM83 359L83 370L72 370L71.83 365.17C71.74 362.51 72.04 360.03 72.5 359.67C72.96 359.3 75.51 359 83 359ZM560 444L570.17 444L570.5 456.28L575.75 457.64C578.64 458.39 582.69 459.86 584.75 460.9C586.81 461.95 590.25 464.54 592.39 466.65C594.52 468.77 597.1 472.3 598.11 474.5C599.12 476.7 600.07 480.3 600.5 486.5L580.63 486.5L579.85 483.5C579.42 481.85 577.7 479.04 576.03 477.25C574.36 475.46 572.32 474 571.5 474C570.23 474 570.04 476.06 570.5 501.15L577.5 503.85C581.35 505.34 586.52 507.74 589 509.19C591.47 510.64 594.94 513.33 596.7 515.16C598.46 517 600.55 520.07 601.34 522C602.13 523.92 603.09 527.3 603.47 529.5C603.85 531.7 603.69 535.97 603.11 539C602.52 542.09 600.62 546.68 598.78 549.47C596.97 552.2 593.7 555.82 591.5 557.52C589.3 559.21 585.25 561.33 582.5 562.22C579.75 563.11 575.81 564.1 570 565L570 576L560 576L560.03 564.5L556.27 563.91C554.19 563.58 550.02 562.21 547 560.86C543.97 559.51 539.47 556.58 537 554.35C534.52 552.12 531.53 548.09 530.34 545.4C529.15 542.7 527.91 538.36 527 531L547.42 531.5L547.99 534.5C548.3 536.15 549.41 538.85 550.45 540.5C551.49 542.15 553.26 544.17 554.39 545C555.51 545.82 557.24 546.84 558.22 547.25C559.88 547.95 560 546.96 560 516L557.25 515.38C555.74 515.05 551.35 513.29 547.5 511.49C543.06 509.4 538.95 506.52 536.25 503.6C533.69 500.83 531.56 497.31 530.89 494.75C530.28 492.41 529.96 487.35 530.19 483.5C530.5 478.26 531.28 475.3 533.3 471.75C534.79 469.14 537.46 465.92 539.25 464.6C541.04 463.27 544.52 461.16 547 459.91C549.47 458.65 553.42 457.37 560.03 456.5L560 444ZM551 479C550.45 480.1 550.02 482.91 550.04 485.25C550.08 488.79 550.71 490.12 553.79 493.21C555.83 495.24 558.06 496.93 558.75 496.96C559.68 496.99 560 493.96 560 485C560 478.4 559.66 473 559.25 473C558.84 473.01 557.04 473.91 555.25 475C553.46 476.1 551.55 477.9 551 479ZM571.75 548C572.71 547.99 574.96 547.09 576.75 546C578.54 544.9 580.75 542.76 581.68 541.25C582.83 539.35 583.22 537.06 582.93 533.85C582.64 530.69 581.7 528.34 580 526.5C578.63 525.02 576.26 523.18 574.75 522.4C573.24 521.63 571.55 521 571 521C570.38 521 570 526.17 570 534.5C570 546.69 570.17 548 571.75 548Z" />
</svg>