<?xml version="1.0" encoding="utf-8"?>
<svg viewBox="321.213 95.41 18.599 20.525" xmlns="http://www.w3.org/2000/svg">
  <defs>
    <linearGradient gradientUnits="userSpaceOnUse" x1="330.512" y1="95.41" x2="330.512" y2="115.935" id="gradient-1" gradientTransform="matrix(0.706346, -0.707866, 0.361337, 0.367755, 59.681761, 304.425752)">
      <stop offset="0" style="stop-color: rgb(255, 193, 7);"/>
      <stop offset="1" style="stop-color: rgb(255, 168, 7);"/>
    </linearGradient>
  </defs>
  <path id="path-1" fill-rule="evenodd" class="shp0" d="M 334.017 95.412 C 334.282 95.418 334.509 95.432 334.631 95.454 C 334.738 95.473 334.898 95.51 334.988 95.533 C 335.077 95.559 335.217 95.598 335.301 95.623 C 335.383 95.648 335.467 95.675 335.484 95.685 C 335.503 95.692 335.609 95.739 335.722 95.787 C 335.834 95.835 335.985 95.904 336.056 95.942 C 336.127 95.98 336.23 96.036 336.283 96.067 C 336.337 96.096 336.399 96.131 336.424 96.144 C 336.447 96.157 336.524 96.207 336.594 96.256 C 336.663 96.302 336.756 96.365 336.8 96.395 C 336.843 96.424 336.946 96.501 337.029 96.566 C 337.112 96.632 337.207 96.709 337.241 96.739 C 337.276 96.77 337.322 96.81 337.344 96.831 C 337.366 96.852 337.389 96.869 337.396 96.869 C 337.401 96.869 337.488 96.955 337.588 97.057 C 337.688 97.162 337.796 97.276 337.829 97.311 C 337.86 97.349 337.941 97.445 338.007 97.528 C 338.073 97.612 338.134 97.684 338.141 97.69 C 338.149 97.696 338.202 97.769 338.262 97.853 C 338.321 97.934 338.406 98.053 338.45 98.117 C 338.493 98.178 338.529 98.234 338.529 98.24 C 338.529 98.247 338.558 98.295 338.593 98.349 C 338.629 98.403 338.658 98.451 338.658 98.455 C 338.658 98.462 338.677 98.493 338.699 98.528 C 338.721 98.558 338.799 98.703 338.871 98.846 C 338.941 98.988 339.037 99.181 339.082 99.277 C 339.125 99.371 339.168 99.474 339.178 99.503 C 339.188 99.534 339.216 99.611 339.24 99.676 C 339.267 99.742 339.31 99.863 339.336 99.946 C 339.365 100.029 339.404 100.156 339.425 100.226 C 339.445 100.298 339.474 100.399 339.491 100.453 C 339.507 100.507 339.541 100.643 339.565 100.756 C 339.591 100.868 339.629 101.044 339.651 101.145 C 339.672 101.245 339.706 101.439 339.724 101.576 C 339.743 101.713 339.77 101.957 339.786 102.117 C 339.801 102.282 339.812 102.69 339.812 103.066 C 339.812 103.535 339.801 103.818 339.775 104.049 C 339.756 104.226 339.729 104.44 339.716 104.524 C 339.703 104.607 339.673 104.763 339.65 104.869 C 339.625 104.977 339.591 105.126 339.573 105.203 C 339.557 105.28 339.522 105.408 339.499 105.485 C 339.475 105.562 339.423 105.727 339.383 105.851 C 339.342 105.976 339.274 106.166 339.23 106.273 C 339.188 106.379 339.101 106.574 339.037 106.704 C 338.971 106.835 338.88 107.013 338.832 107.099 C 338.783 107.185 338.71 107.304 338.669 107.363 C 338.629 107.422 338.593 107.477 338.593 107.481 C 338.593 107.487 338.567 107.529 338.535 107.573 C 338.501 107.619 338.468 107.657 338.458 107.66 C 338.45 107.663 338.442 107.674 338.442 107.687 C 338.442 107.699 338.388 107.779 338.321 107.865 C 338.254 107.951 338.192 108.024 338.18 108.027 C 338.17 108.03 338.161 108.045 338.161 108.059 C 338.16 108.075 338.138 108.107 338.112 108.131 C 338.085 108.157 337.977 108.268 337.87 108.377 C 337.764 108.487 337.615 108.632 337.538 108.699 C 337.462 108.766 337.391 108.83 337.376 108.843 C 337.362 108.855 337.306 108.898 337.248 108.94 C 337.192 108.982 337.145 109.022 337.145 109.031 C 337.145 109.04 337.131 109.052 337.109 109.058 C 337.089 109.064 336.993 109.121 336.898 109.186 C 336.803 109.251 336.713 109.315 336.699 109.328 C 336.685 109.34 336.666 109.349 336.662 109.349 C 336.655 109.349 336.599 109.38 336.537 109.416 C 336.475 109.456 336.318 109.538 336.186 109.603 C 336.055 109.667 335.92 109.733 335.884 109.749 C 335.849 109.763 335.77 109.795 335.711 109.82 C 335.651 109.844 335.564 109.878 335.516 109.895 C 335.469 109.913 335.338 109.958 335.226 109.994 C 335.113 110.032 334.962 110.077 334.891 110.096 C 334.819 110.115 334.698 110.145 334.621 110.161 C 334.542 110.179 334.359 110.215 334.211 110.244 C 334.062 110.273 333.809 110.312 333.649 110.328 C 333.488 110.348 333.236 110.367 333.087 110.376 C 332.939 110.381 332.728 110.392 332.418 110.408 L 332.418 115.935 L 328.619 115.935 L 328.619 110.418 L 328.43 110.403 C 328.325 110.394 328.1 110.381 327.926 110.376 C 327.755 110.367 327.502 110.348 327.366 110.331 C 327.228 110.313 327.006 110.278 326.871 110.254 C 326.732 110.229 326.557 110.195 326.48 110.177 C 326.403 110.16 326.281 110.131 326.211 110.112 C 326.139 110.094 326.027 110.062 325.963 110.041 C 325.897 110.022 325.785 109.986 325.714 109.965 C 325.643 109.943 325.555 109.914 325.519 109.899 C 325.484 109.884 325.402 109.851 325.336 109.824 C 325.271 109.798 325.188 109.763 325.153 109.749 C 325.117 109.733 324.977 109.666 324.839 109.599 C 324.702 109.533 324.499 109.425 324.385 109.358 C 324.273 109.293 324.179 109.231 324.176 109.219 C 324.172 109.209 324.16 109.198 324.149 109.198 C 324.137 109.198 324.059 109.149 323.975 109.091 C 323.893 109.031 323.805 108.966 323.778 108.945 C 323.754 108.923 323.71 108.888 323.683 108.865 C 323.655 108.84 323.601 108.796 323.561 108.768 C 323.522 108.738 323.379 108.601 323.241 108.463 C 323.105 108.325 322.968 108.184 322.938 108.149 C 322.907 108.115 322.835 108.028 322.777 107.957 C 322.72 107.886 322.665 107.825 322.655 107.822 C 322.645 107.819 322.637 107.806 322.637 107.795 C 322.637 107.783 322.591 107.708 322.534 107.628 C 322.476 107.547 322.401 107.435 322.366 107.377 C 322.331 107.32 322.286 107.247 322.266 107.215 C 322.247 107.184 322.215 107.134 322.199 107.104 C 322.183 107.074 322.125 106.963 322.071 106.855 C 322.017 106.748 321.945 106.598 321.91 106.52 C 321.874 106.443 321.829 106.34 321.81 106.289 C 321.791 106.238 321.76 106.161 321.744 106.115 C 321.728 106.073 321.694 105.981 321.67 105.916 C 321.646 105.851 321.609 105.739 321.588 105.668 C 321.569 105.597 321.535 105.479 321.512 105.409 C 321.492 105.337 321.46 105.216 321.442 105.139 C 321.424 105.061 321.396 104.92 321.377 104.827 C 321.358 104.73 321.328 104.557 321.309 104.437 C 321.29 104.319 321.26 104.042 321.245 103.822 C 321.228 103.602 321.214 103.277 321.213 103.099 C 321.212 102.921 321.222 102.639 321.235 102.472 C 321.247 102.305 321.277 102.035 321.3 101.868 C 321.325 101.701 321.359 101.498 321.376 101.414 C 321.393 101.331 321.422 101.19 321.44 101.102 C 321.46 101.012 321.492 100.877 321.514 100.8 C 321.535 100.723 321.572 100.595 321.591 100.518 C 321.611 100.441 321.641 100.338 321.66 100.292 C 321.678 100.245 321.701 100.176 321.711 100.141 C 321.72 100.105 321.755 99.998 321.789 99.903 C 321.823 99.808 321.856 99.721 321.863 99.709 C 321.871 99.696 321.903 99.619 321.935 99.535 C 321.966 99.453 322.006 99.355 322.022 99.319 C 322.038 99.284 322.123 99.104 322.215 98.921 C 322.308 98.736 322.402 98.55 322.428 98.505 C 322.454 98.461 322.502 98.374 322.537 98.311 C 322.572 98.249 322.628 98.156 322.662 98.105 C 322.695 98.056 322.723 98.009 322.723 98.002 C 322.723 97.997 322.737 97.975 322.755 97.954 C 322.771 97.934 322.819 97.872 322.858 97.819 C 322.897 97.765 322.977 97.654 323.037 97.572 C 323.097 97.489 323.16 97.407 323.177 97.388 C 323.196 97.371 323.254 97.301 323.307 97.236 C 323.359 97.172 323.494 97.025 323.609 96.912 C 323.721 96.8 323.916 96.626 324.041 96.527 C 324.166 96.428 324.284 96.333 324.305 96.317 C 324.326 96.301 324.353 96.286 324.365 96.286 C 324.377 96.286 324.388 96.279 324.391 96.27 C 324.395 96.26 324.488 96.198 324.602 96.131 C 324.715 96.065 324.885 95.975 324.979 95.931 C 325.075 95.887 325.172 95.842 325.196 95.832 C 325.22 95.822 325.264 95.803 325.293 95.791 C 325.334 95.775 325.356 95.778 325.39 95.807 C 325.413 95.828 325.512 95.907 325.606 95.984 C 325.7 96.061 325.783 96.129 325.79 96.135 C 325.795 96.142 325.843 96.181 325.897 96.221 C 325.95 96.263 326.018 96.317 326.046 96.34 C 326.075 96.365 326.134 96.413 326.177 96.448 C 326.219 96.485 326.297 96.549 326.35 96.593 C 326.405 96.635 326.473 96.69 326.503 96.715 C 326.531 96.74 326.566 96.768 326.579 96.778 C 326.59 96.787 326.678 96.855 326.772 96.934 C 326.868 97.011 326.949 97.079 326.956 97.085 C 326.961 97.092 327.01 97.131 327.063 97.172 C 327.116 97.213 327.171 97.256 327.184 97.269 C 327.199 97.281 327.282 97.349 327.536 97.549 L 327.539 97.895 L 327.428 97.959 C 327.367 97.995 327.303 98.035 327.282 98.047 C 327.263 98.059 327.218 98.087 327.183 98.111 C 327.147 98.133 327.059 98.197 326.987 98.25 C 326.917 98.302 326.826 98.375 326.785 98.412 C 326.745 98.448 326.663 98.528 326.602 98.589 C 326.541 98.648 326.458 98.736 326.418 98.782 C 326.377 98.828 326.293 98.936 326.23 99.019 C 326.168 99.101 326.077 99.232 326.029 99.309 C 325.982 99.386 325.882 99.571 325.81 99.72 C 325.737 99.868 325.67 100.009 325.66 100.032 C 325.65 100.055 325.596 100.207 325.544 100.367 C 325.492 100.527 325.428 100.741 325.404 100.842 C 325.38 100.943 325.341 101.128 325.317 101.253 C 325.293 101.378 325.262 101.542 325.251 101.619 C 325.238 101.696 325.217 101.931 325.204 102.137 C 325.19 102.358 325.185 102.779 325.192 103.142 C 325.2 103.521 325.218 103.87 325.239 104.027 C 325.258 104.17 325.293 104.384 325.317 104.502 C 325.341 104.621 325.386 104.815 325.415 104.933 C 325.445 105.054 325.476 105.179 325.486 105.213 C 325.494 105.25 325.518 105.312 325.537 105.35 C 325.558 105.388 325.574 105.43 325.574 105.441 C 325.574 105.453 325.588 105.499 325.608 105.543 C 325.626 105.589 325.687 105.717 325.743 105.83 C 325.798 105.942 325.897 106.114 325.962 106.211 C 326.027 106.307 326.125 106.437 326.178 106.5 C 326.232 106.562 326.299 106.633 326.326 106.658 C 326.357 106.684 326.416 106.738 326.463 106.78 C 326.508 106.822 326.557 106.864 326.572 106.877 C 326.588 106.889 326.633 106.923 326.675 106.954 C 326.717 106.985 326.765 107.017 326.782 107.025 C 326.801 107.033 326.844 107.059 326.879 107.081 C 326.916 107.104 326.988 107.144 327.042 107.17 C 327.096 107.198 327.173 107.232 327.214 107.249 C 327.256 107.265 327.348 107.297 327.42 107.318 C 327.492 107.342 327.631 107.379 327.733 107.403 C 327.835 107.427 328.003 107.456 328.111 107.469 C 328.217 107.482 328.378 107.493 328.629 107.493 L 328.646 105.102 C 328.655 103.786 328.672 102.448 328.683 102.127 C 328.693 101.807 328.711 101.408 328.725 101.243 C 328.738 101.076 328.77 100.778 328.793 100.583 C 328.816 100.386 328.851 100.135 328.869 100.022 C 328.887 99.908 328.921 99.72 328.945 99.601 C 328.972 99.483 329.02 99.264 329.055 99.115 C 329.09 98.966 329.153 98.744 329.194 98.619 C 329.234 98.493 329.282 98.361 329.3 98.322 C 329.317 98.282 329.33 98.245 329.33 98.236 C 329.33 98.226 329.349 98.181 329.372 98.133 C 329.395 98.085 329.43 98.008 329.449 97.959 C 329.468 97.912 329.496 97.854 329.509 97.831 C 329.522 97.807 329.561 97.734 329.594 97.668 C 329.628 97.603 329.668 97.53 329.682 97.507 C 329.697 97.484 329.756 97.391 329.816 97.301 C 329.875 97.213 329.976 97.07 330.041 96.989 C 330.107 96.904 330.185 96.809 330.214 96.775 C 330.245 96.74 330.3 96.683 330.337 96.645 C 330.375 96.608 330.433 96.553 330.466 96.524 C 330.502 96.495 330.583 96.426 330.648 96.372 C 330.715 96.319 330.821 96.242 330.887 96.201 C 330.95 96.16 331.01 96.119 331.014 96.111 C 331.021 96.103 331.146 96.036 331.295 95.964 C 331.444 95.89 331.582 95.822 331.604 95.81 C 331.623 95.8 331.652 95.79 331.662 95.79 C 331.673 95.79 331.724 95.772 331.775 95.751 C 331.826 95.727 331.922 95.695 331.987 95.675 C 332.052 95.656 332.158 95.626 332.224 95.608 C 332.289 95.589 332.431 95.557 332.537 95.533 C 332.645 95.51 332.814 95.479 332.914 95.464 C 333.016 95.45 333.21 95.431 333.347 95.421 C 333.484 95.412 333.784 95.408 334.017 95.412 Z M 333.433 98.419 C 333.333 98.467 333.249 98.531 333.141 98.645 C 333.058 98.731 332.978 98.822 332.964 98.846 C 332.951 98.869 332.9 98.965 332.852 99.062 C 332.806 99.157 332.754 99.273 332.736 99.319 C 332.719 99.368 332.687 99.464 332.671 99.535 C 332.651 99.608 332.62 99.734 332.6 99.816 C 332.581 99.901 332.55 100.061 332.533 100.173 C 332.517 100.286 332.494 100.475 332.482 100.594 C 332.471 100.713 332.447 100.984 332.431 101.198 C 332.402 101.521 332.397 102.086 332.397 104.54 L 332.397 107.493 C 332.656 107.493 332.839 107.478 332.969 107.459 C 333.099 107.443 333.295 107.403 333.401 107.372 C 333.508 107.343 333.624 107.31 333.659 107.301 C 333.696 107.291 333.744 107.274 333.767 107.26 C 333.791 107.249 333.869 107.211 333.941 107.179 C 334.012 107.144 334.12 107.088 334.178 107.053 C 334.237 107.017 334.346 106.941 334.42 106.884 C 334.494 106.826 334.634 106.699 334.731 106.603 C 334.828 106.504 334.95 106.36 335.004 106.283 C 335.057 106.206 335.142 106.074 335.191 105.992 C 335.241 105.909 335.303 105.793 335.329 105.732 C 335.357 105.674 335.396 105.586 335.418 105.538 C 335.441 105.491 335.489 105.36 335.525 105.248 C 335.561 105.134 335.609 104.974 335.634 104.891 C 335.656 104.807 335.689 104.666 335.708 104.576 C 335.725 104.488 335.754 104.313 335.773 104.19 C 335.791 104.065 335.818 103.826 335.834 103.661 C 335.85 103.483 335.86 103.075 335.86 102.667 C 335.859 102.288 335.847 101.752 335.833 101.479 C 335.818 101.206 335.792 100.855 335.773 100.702 C 335.756 100.547 335.727 100.334 335.709 100.226 C 335.691 100.119 335.656 99.945 335.631 99.838 C 335.608 99.731 335.57 99.588 335.546 99.521 C 335.524 99.453 335.474 99.325 335.436 99.239 C 335.399 99.153 335.329 99.029 335.285 98.963 C 335.24 98.899 335.143 98.783 335.069 98.708 C 334.995 98.632 334.88 98.541 334.815 98.503 C 334.75 98.467 334.647 98.418 334.589 98.396 C 334.529 98.375 334.388 98.343 334.275 98.326 C 334.162 98.309 334.021 98.295 333.961 98.297 C 333.903 98.298 333.791 98.311 333.714 98.326 C 333.636 98.341 333.511 98.381 333.433 98.419 Z" style="fill: url(#gradient-1);"/>
</svg>